<?xml version="1.0" encoding="UTF-8" standalone="no"?>
<!-- Created with Inkscape (http://www.inkscape.org/) -->

<svg
   width="800"
   height="480"
   viewBox="0 0 800 480"
   version="1.1"
   id="svg1"
   xml:space="preserve"
   inkscape:version="1.2.2 (732a01da63, 2022-12-09)"
   sodipodi:docname="Chiuyi.svg"
   inkscape:export-filename="Chiuyi_dashboard_V2_Night.png"
   inkscape:export-xdpi="96"
   inkscape:export-ydpi="96"
   xmlns:inkscape="http://www.inkscape.org/namespaces/inkscape"
   xmlns:sodipodi="http://sodipodi.sourceforge.net/DTD/sodipodi-0.dtd"
   xmlns:xlink="http://www.w3.org/1999/xlink"
   xmlns="http://www.w3.org/2000/svg"
   xmlns:svg="http://www.w3.org/2000/svg"><sodipodi:namedview
     id="namedview1"
     pagecolor="#ffffff"
     bordercolor="#111111"
     borderopacity="1"
     inkscape:showpageshadow="0"
     inkscape:pageopacity="0"
     inkscape:pagecheckerboard="1"
     inkscape:deskcolor="#d1d1d1"
     inkscape:document-units="mm"
     inkscape:zoom="0.3044868"
     inkscape:cx="1702.8653"
     inkscape:cy="561.6007"
     inkscape:window-width="1920"
     inkscape:window-height="1017"
     inkscape:window-x="1912"
     inkscape:window-y="-8"
     inkscape:window-maximized="1"
     inkscape:current-layer="layer2"
     inkscape:export-bgcolor="#ffffff00"
     showgrid="false" /><defs
     id="defs1"><linearGradient
       id="linearGradient111"
       inkscape:collect="always"><stop
         style="stop-color:#dadf00;stop-opacity:1;"
         offset="0"
         id="stop112" /><stop
         style="stop-color:#000000;stop-opacity:1;"
         offset="1"
         id="stop116" /></linearGradient><inkscape:path-effect
       effect="fillet_chamfer"
       id="path-effect18"
       is_visible="true"
       lpeversion="1"
       nodesatellites_param="F,0,0,1,0,0,0,1 @ F,0,0,1,0,1.1921062,0,1 @ F,0,0,1,0,2.351531,0,1 @ F,0,0,1,0,2.4683847,0,1 @ F,0,0,1,0,0,0,1 @ F,0,0,1,0,0,0,1 @ F,0,0,1,0,2.7910423,0,1 @ F,0,0,1,0,1.4605718,0,1 @ F,0,0,1,0,1.4776186,0,1 @ F,0,0,1,0,0,0,1"
       radius="0"
       unit="px"
       method="auto"
       mode="F"
       chamfer_steps="1"
       flexible="false"
       use_knot_distance="true"
       apply_no_radius="true"
       apply_with_radius="true"
       only_selected="false"
       hide_knots="false" /><inkscape:path-effect
       effect="fillet_chamfer"
       id="path-effect16"
       is_visible="true"
       lpeversion="1"
       nodesatellites_param="F,0,0,1,0,0,0,1 @ F,0,0,1,0,1.1921062,0,1 @ F,0,0,1,0,2.351531,0,1 @ F,0,0,1,0,2.4683847,0,1 @ F,0,0,1,0,0,0,1 @ F,0,0,1,0,0,0,1 @ F,0,0,1,0,2.7910423,0,1 @ F,0,0,1,0,1.4605718,0,1 @ F,0,0,1,0,1.4776186,0,1 @ F,0,0,1,0,0,0,1"
       radius="0"
       unit="px"
       method="auto"
       mode="F"
       chamfer_steps="1"
       flexible="false"
       use_knot_distance="true"
       apply_no_radius="true"
       apply_with_radius="true"
       only_selected="false"
       hide_knots="false" /><inkscape:path-effect
       effect="fillet_chamfer"
       id="path-effect14"
       is_visible="true"
       lpeversion="1"
       nodesatellites_param="F,0,0,1,0,0,0,1 @ F,0,0,1,0,1.1921062,0,1 @ F,0,0,1,0,2.4683847,0,1 @ F,0,0,1,0,0,0,1 @ F,0,0,1,0,0,0,1 @ F,0,0,1,0,2.7910423,0,1 @ F,0,0,1,0,1.4605718,0,1 @ F,0,0,1,0,1.4776186,0,1 @ F,0,0,1,0,0,0,1"
       radius="0"
       unit="px"
       method="auto"
       mode="F"
       chamfer_steps="1"
       flexible="false"
       use_knot_distance="true"
       apply_no_radius="true"
       apply_with_radius="true"
       only_selected="false"
       hide_knots="false" /><inkscape:path-effect
       effect="fillet_chamfer"
       id="path-effect11"
       is_visible="true"
       lpeversion="1"
       nodesatellites_param="F,0,0,1,0,0,0,1 @ F,0,0,1,0,1.1921062,0,1 @ F,0,0,1,0,2.351531,0,1 @ F,0,0,1,0,2.4683847,0,1 @ F,0,0,1,0,0,0,1 @ F,0,0,1,0,0,0,1 @ F,0,0,1,0,2.7910423,0,1 @ F,0,0,1,0,1.4605718,0,1 @ F,0,0,1,0,1.4776186,0,1 @ F,0,0,1,0,0,0,1"
       radius="0"
       unit="px"
       method="auto"
       mode="F"
       chamfer_steps="1"
       flexible="false"
       use_knot_distance="true"
       apply_no_radius="true"
       apply_with_radius="true"
       only_selected="false"
       hide_knots="false" /><inkscape:path-effect
       effect="fillet_chamfer"
       id="path-effect10"
       is_visible="true"
       lpeversion="1"
       nodesatellites_param="F,0,0,1,0,0,0,1 @ F,0,0,1,0,1.840145,0,1 @ F,0,0,1,0,0,0,1 @ F,0,0,1,0,0,0,1 @ F,0,0,1,0,0,0,1 @ F,0,0,1,0,0,0,1 @ F,0,0,1,0,0,0,1 @ F,0,0,1,0,0,0,1 @ F,0,0,1,0,0,0,1 @ F,0,0,1,0,0,0,1"
       radius="0"
       unit="px"
       method="auto"
       mode="F"
       chamfer_steps="1"
       flexible="false"
       use_knot_distance="true"
       apply_no_radius="true"
       apply_with_radius="true"
       only_selected="false"
       hide_knots="false" /><inkscape:path-effect
       effect="fillet_chamfer"
       id="path-effect9"
       is_visible="true"
       lpeversion="1"
       nodesatellites_param="F,0,0,1,0,0,0,1 @ F,0,0,1,0,0,0,1 @ F,0,0,1,0,0,0,1 @ F,0,0,1,0,1.9562964,0,1 @ F,0,0,1,0,0,0,1 @ F,0,0,1,0,0,0,1 @ F,0,0,1,0,0,0,1 @ F,0,0,1,0,0,0,1 @ F,0,0,1,0,0,0,1 @ F,0,0,1,0,0,0,1"
       radius="0"
       unit="px"
       method="auto"
       mode="F"
       chamfer_steps="1"
       flexible="false"
       use_knot_distance="true"
       apply_no_radius="true"
       apply_with_radius="true"
       only_selected="false"
       hide_knots="false" /><radialGradient
       inkscape:collect="always"
       xlink:href="#linearGradient111"
       id="radialGradient113"
       cx="102.82909"
       cy="118.88418"
       fx="102.82909"
       fy="118.88418"
       r="55.345268"
       gradientTransform="matrix(6.3888496,0,0,0.07367016,-274.43214,51.410304)"
       gradientUnits="userSpaceOnUse" /><clipPath
       id="clip0_429_11003"><rect
         width="24"
         height="24"
         fill="#ffffff"
         id="rect1"
         x="0"
         y="0" /></clipPath><clipPath
       id="clip0_429_10997"><rect
         width="24"
         height="24"
         fill="#ffffff"
         id="rect1-0"
         x="0"
         y="0" /></clipPath><clipPath
       id="clip0_429_10996"><rect
         width="24"
         height="24"
         fill="#ffffff"
         id="rect1-8"
         x="0"
         y="0" /></clipPath><clipPath
       id="clip0_429_11105"><rect
         width="24"
         height="24"
         fill="#ffffff"
         id="rect1-1"
         x="0"
         y="0" /></clipPath><clipPath
       id="clip0_429_10995"><rect
         width="24"
         height="24"
         fill="#ffffff"
         id="rect1-06"
         x="0"
         y="0" /></clipPath><clipPath
       id="clip0_429_11176"><rect
         width="24"
         height="24"
         fill="#ffffff"
         id="rect1-3"
         x="0"
         y="0" /></clipPath><clipPath
       id="clip0_429_11190"><rect
         width="24"
         height="24"
         fill="#ffffff"
         id="rect1-85"
         x="0"
         y="0" /></clipPath><clipPath
       id="clip0_429_10994"><rect
         width="24"
         height="24"
         fill="#ffffff"
         id="rect2"
         x="0"
         y="0" /></clipPath><clipPath
       id="clip0_429_10993"><rect
         width="24"
         height="24"
         fill="#ffffff"
         id="rect1-6"
         x="0"
         y="0" /></clipPath></defs><g
     inkscape:groupmode="layer"
     id="layer2"
     inkscape:label="Background"
     style="display:inline"><g
       id="bk"
       inkscape:label="bk"><rect
         style="fill:#000000;stroke-width:0.26516"
         id="night_background"
         width="799.78918"
         height="481.72046"
         x="0.040296253"
         y="-1.2288793" /><text
         xml:space="preserve"
         style="font-style:normal;font-variant:normal;font-weight:normal;font-stretch:normal;font-size:27.8936px;font-family:Arial;-inkscape-font-specification:'Arial, Normal';font-variant-ligatures:normal;font-variant-caps:normal;font-variant-numeric:normal;font-variant-east-asian:normal;display:inline;fill:#ffffff;fill-opacity:0.976471;stroke-width:1.74335"
         x="269.39893"
         y="47.978271"
         id="trip_mark"
         transform="scale(0.96961865,1.0313333)"><tspan
           sodipodi:role="line"
           id="tspan77"
           style="font-style:normal;font-variant:normal;font-weight:normal;font-stretch:normal;font-size:27.8936px;font-family:Arial;-inkscape-font-specification:'Arial, Normal';font-variant-ligatures:normal;font-variant-caps:normal;font-variant-numeric:normal;font-variant-east-asian:normal;stroke-width:1.74335"
           x="269.39893"
           y="47.978271">TRIP</tspan></text><text
         xml:space="preserve"
         style="font-style:normal;font-variant:normal;font-weight:normal;font-stretch:normal;font-size:32.5425px;font-family:Arial;-inkscape-font-specification:'Arial, Normal';font-variant-ligatures:normal;font-variant-caps:normal;font-variant-numeric:normal;font-variant-east-asian:normal;display:inline;fill:#ffffff;fill-opacity:0.976471;stroke-width:1.74335"
         x="444.19852"
         y="47.978271"
         id="km_mark"
         transform="scale(0.96961865,1.0313333)"><tspan
           sodipodi:role="line"
           id="tspan76"
           style="font-style:normal;font-variant:normal;font-weight:normal;font-stretch:normal;font-size:32.5425px;font-family:Arial;-inkscape-font-specification:'Arial, Normal';font-variant-ligatures:normal;font-variant-caps:normal;font-variant-numeric:normal;font-variant-east-asian:normal;stroke-width:1.74335"
           x="444.19852"
           y="47.978271">km</tspan></text><path
         class="st0"
         d="m 664.5643,34.348497 c -0.3641,-0.451916 -0.60493,-0.712641 -1.03928,-1.186213 -1.39378,-1.516631 -2.65438,-2.85794 -2.65573,-2.859321 l -0.62834,-0.668797 -0.87005,0.903725 1.79955,2.905076 0.0187,0.04061 c 0.01,0.03137 0.0187,0.08312 0.0187,0.150001 0.003,0.143526 -0.0487,0.350799 -0.12367,0.494326 l -0.158,0.309239 c -0.18268,0.358602 -0.28508,1.12066 -0.2847,1.516683 -3.8e-4,0.381215 0.0847,0.76434 0.25522,1.113706 l 0.31113,0.638331 c 0.36405,0.746823 1.06528,1.228677 1.84597,1.292372 l 0.14966,0.04983 c 0,2.100554 0,4.718948 0,6.732294 -0.003,0.586154 -0.1645,0.935096 -0.34371,1.148368 -0.18225,0.211838 -0.39749,0.299046 -0.5945,0.299578 -0.19094,-0.0037 -0.36015,-0.07155 -0.51984,-0.262636 -0.15616,-0.191986 -0.31763,-0.546449 -0.31938,-1.185256 0,-1.890576 0,-2.363192 0,-3.544786 -4.5e-4,-0.377553 -0.0717,-0.75139 -0.20182,-1.113281 -0.19611,-0.540931 -0.52901,-1.061584 -1.01541,-1.464031 -0.48297,-0.402499 -1.1317,-0.668371 -1.85769,-0.665558 -0.085,0 -0.17091,0.0051 -0.2577,0.01205 V 28.475129 c 5e-5,-1.405909 -1.07136,-2.545465 -2.39315,-2.545465 h -10.49911 c -1.32179,0 -2.39315,1.139556 -2.39315,2.545465 v 21.558948 h -1.55527 v 3.072114 h 18.3959 v -3.072114 h -1.55522 v -9.126854 c 0.092,-0.01436 0.17965,-0.02399 0.2577,-0.02399 0.22437,9.02e-4 0.39972,0.04938 0.55372,0.12739 0.22915,0.116345 0.41788,0.312956 0.55023,0.549263 0.13317,0.232593 0.19572,0.502181 0.19357,0.675699 0,1.181594 0,1.654212 0,3.544784 -0.002,0.984937 0.26508,1.826826 0.75503,2.425452 0.48602,0.600061 1.1807,0.917155 1.86159,0.91344 0.70776,4.23e-4 1.40596,-0.327233 1.91108,-0.92034 0.50772,-0.592629 0.80713,-1.440993 0.80453,-2.418552 0,-3.072115 0,-7.975727 0,-9.866246 5e-5,-0.88621 -0.0832,-1.152083 -0.41653,-1.565623 z m -10.0257,3.633374 h -8.17585 v -8.271112 h 8.1758 v 8.271112 z m 8.66489,-0.798947 c 0,0.149052 -0.0803,0.218793 -0.19442,0.216456 -0.21478,-0.0037 -0.54938,-0.05308 -0.6943,-0.303718 -0.25905,-0.447723 -0.60797,-1.32008 -0.23,-2.004058 0.0403,-0.07293 0.1285,-0.190182 0.28555,-0.07845 l 0.50552,0.493848 c 0.20868,0.203081 0.3276,0.489708 0.3276,0.790613 5e-5,0 5e-5,0.736208 5e-5,0.885309 z"
         id="oil_mark"
         style="display:inline;fill:#ffff00;fill-opacity:0.6;stroke-width:0.0514666" /><rect
         style="display:inline;fill:url(#radialGradient113);stroke:none;stroke-width:1.65134"
         id="rect106"
         width="707.18518"
         height="8.1545868"
         x="28.934835"
         y="56.091244"
         inkscape:label="rect106_mark" /><g
         id="rpm_diginumber_mark"
         inkscape:label="#rpm_diginumber_mark"
         style="display:inline"
         transform="translate(0,19.050006)"><text
           xml:space="preserve"
           style="font-style:italic;font-variant:normal;font-weight:bold;font-stretch:normal;font-size:46.4892px;font-family:Arial;-inkscape-font-specification:'Arial, Bold Italic';font-variant-ligatures:normal;font-variant-caps:normal;font-variant-numeric:normal;font-variant-east-asian:normal;fill:#ffffff;fill-opacity:0.976471;stroke-width:1.74335"
           x="90.851456"
           y="413.11279"
           id="rpm_0_mark"
           transform="scale(0.96961866,1.0313333)"><tspan
             sodipodi:role="line"
             id="tspan65"
             style="font-style:italic;font-variant:normal;font-weight:bold;font-stretch:normal;font-size:46.4892px;font-family:Arial;-inkscape-font-specification:'Arial, Bold Italic';font-variant-ligatures:normal;font-variant-caps:normal;font-variant-numeric:normal;font-variant-east-asian:normal;stroke-width:1.74335"
             x="90.851456"
             y="413.11279">0</tspan></text><text
           xml:space="preserve"
           style="font-style:italic;font-variant:normal;font-weight:bold;font-stretch:normal;font-size:46.4892px;font-family:Arial;-inkscape-font-specification:'Arial, Bold Italic';font-variant-ligatures:normal;font-variant-caps:normal;font-variant-numeric:normal;font-variant-east-asian:normal;fill:#ffffff;fill-opacity:0.976471;stroke-width:1.74335"
           x="28.238045"
           y="323.91821"
           id="rpm_1_mark"
           transform="scale(0.96961866,1.0313333)"><tspan
             sodipodi:role="line"
             id="tspan66"
             style="font-style:italic;font-variant:normal;font-weight:bold;font-stretch:normal;font-size:46.4892px;font-family:Arial;-inkscape-font-specification:'Arial, Bold Italic';font-variant-ligatures:normal;font-variant-caps:normal;font-variant-numeric:normal;font-variant-east-asian:normal;stroke-width:1.74335"
             x="28.238045"
             y="323.91821">1</tspan></text><text
           xml:space="preserve"
           style="font-style:italic;font-variant:normal;font-weight:bold;font-stretch:normal;font-size:46.4892px;font-family:Arial;-inkscape-font-specification:'Arial, Bold Italic';font-variant-ligatures:normal;font-variant-caps:normal;font-variant-numeric:normal;font-variant-east-asian:normal;fill:#ffffff;fill-opacity:0.976471;stroke-width:1.74335"
           x="25.445957"
           y="221.72849"
           id="rpm_2_mark"
           transform="scale(0.96961866,1.0313333)"><tspan
             sodipodi:role="line"
             id="tspan67"
             style="font-style:italic;font-variant:normal;font-weight:bold;font-stretch:normal;font-size:46.4892px;font-family:Arial;-inkscape-font-specification:'Arial, Bold Italic';font-variant-ligatures:normal;font-variant-caps:normal;font-variant-numeric:normal;font-variant-east-asian:normal;stroke-width:1.74335"
             x="25.445957"
             y="221.72849">2</tspan></text><text
           xml:space="preserve"
           style="font-style:italic;font-variant:normal;font-weight:bold;font-stretch:normal;font-size:46.4892px;font-family:Arial;-inkscape-font-specification:'Arial, Bold Italic';font-variant-ligatures:normal;font-variant-caps:normal;font-variant-numeric:normal;font-variant-east-asian:normal;fill:#ffffff;fill-opacity:0.976471;stroke-width:1.74335"
           x="90.126762"
           y="116.47247"
           id="rpm_3_mark"
           transform="scale(0.96961866,1.0313333)"><tspan
             sodipodi:role="line"
             id="tspan68"
             style="font-style:italic;font-variant:normal;font-weight:bold;font-stretch:normal;font-size:46.4892px;font-family:Arial;-inkscape-font-specification:'Arial, Bold Italic';font-variant-ligatures:normal;font-variant-caps:normal;font-variant-numeric:normal;font-variant-east-asian:normal;stroke-width:1.74335"
             x="90.126762"
             y="116.47247">3</tspan></text><text
           xml:space="preserve"
           style="font-style:italic;font-variant:normal;font-weight:bold;font-stretch:normal;font-size:46.4892px;font-family:Arial;-inkscape-font-specification:'Arial, Bold Italic';font-variant-ligatures:normal;font-variant-caps:normal;font-variant-numeric:normal;font-variant-east-asian:normal;fill:#ffffff;fill-opacity:0.976471;stroke-width:1.74335"
           x="202.48335"
           y="93.232086"
           id="rpm_4_mark"
           inkscape:label="rpm_4_mark"
           transform="scale(0.96961866,1.0313333)"><tspan
             sodipodi:role="line"
             id="tspan69"
             style="font-style:italic;font-variant:normal;font-weight:bold;font-stretch:normal;font-size:46.4892px;font-family:Arial;-inkscape-font-specification:'Arial, Bold Italic';font-variant-ligatures:normal;font-variant-caps:normal;font-variant-numeric:normal;font-variant-east-asian:normal;stroke-width:1.74335"
             x="202.48335"
             y="93.232086">4</tspan></text><text
           xml:space="preserve"
           style="font-style:italic;font-variant:normal;font-weight:bold;font-stretch:normal;font-size:46.4892px;font-family:Arial;-inkscape-font-specification:'Arial, Bold Italic';font-variant-ligatures:normal;font-variant-caps:normal;font-variant-numeric:normal;font-variant-east-asian:normal;fill:#ffffff;fill-opacity:0.976471;stroke-width:1.74335"
           x="293.49606"
           y="92.664589"
           id="text70"
           inkscape:label="rpm_5_mark"
           transform="scale(0.96961866,1.0313333)"><tspan
             sodipodi:role="line"
             id="tspan70"
             style="font-style:italic;font-variant:normal;font-weight:bold;font-stretch:normal;font-size:46.4892px;font-family:Arial;-inkscape-font-specification:'Arial, Bold Italic';font-variant-ligatures:normal;font-variant-caps:normal;font-variant-numeric:normal;font-variant-east-asian:normal;stroke-width:1.74335"
             x="293.49606"
             y="92.664589">5</tspan></text><text
           xml:space="preserve"
           style="font-style:italic;font-variant:normal;font-weight:bold;font-stretch:normal;font-size:46.4892px;font-family:Arial;-inkscape-font-specification:'Arial, Bold Italic';font-variant-ligatures:normal;font-variant-caps:normal;font-variant-numeric:normal;font-variant-east-asian:normal;fill:#cb181f;fill-opacity:1;stroke-width:1.74335"
           x="384.50906"
           y="92.641861"
           id="text78"
           inkscape:label="rpm_6_mark"
           transform="scale(0.96961866,1.0313333)"><tspan
             sodipodi:role="line"
             id="tspan78"
             style="font-style:italic;font-variant:normal;font-weight:bold;font-stretch:normal;font-size:46.4892px;font-family:Arial;-inkscape-font-specification:'Arial, Bold Italic';font-variant-ligatures:normal;font-variant-caps:normal;font-variant-numeric:normal;font-variant-east-asian:normal;fill:#cb181f;fill-opacity:1;stroke-width:1.74335"
             x="384.50906"
             y="92.641861">6</tspan></text><text
           xml:space="preserve"
           style="font-style:italic;font-variant:normal;font-weight:bold;font-stretch:normal;font-size:46.4892px;font-family:Arial;-inkscape-font-specification:'Arial, Bold Italic';font-variant-ligatures:normal;font-variant-caps:normal;font-variant-numeric:normal;font-variant-east-asian:normal;fill:#cb181f;fill-opacity:1;stroke-width:1.74335"
           x="474.38776"
           y="93.232086"
           id="text79"
           inkscape:label="rpm_7_mark"
           transform="scale(0.96961866,1.0313333)"><tspan
             sodipodi:role="line"
             id="tspan79"
             style="font-style:italic;font-variant:normal;font-weight:bold;font-stretch:normal;font-size:46.4892px;font-family:Arial;-inkscape-font-specification:'Arial, Bold Italic';font-variant-ligatures:normal;font-variant-caps:normal;font-variant-numeric:normal;font-variant-east-asian:normal;fill:#cb181f;fill-opacity:1;stroke-width:1.74335"
             x="474.38776"
             y="93.232086">7</tspan></text><text
           xml:space="preserve"
           style="font-style:italic;font-variant:normal;font-weight:bold;font-stretch:normal;font-size:46.4892px;font-family:Arial;-inkscape-font-specification:'Arial, Bold Italic';font-variant-ligatures:normal;font-variant-caps:normal;font-variant-numeric:normal;font-variant-east-asian:normal;fill:#cb181f;fill-opacity:1;stroke-width:1.74335"
           x="567.26208"
           y="92.641861"
           id="text80"
           inkscape:label="rpm_8_mark"
           transform="scale(0.96961866,1.0313333)"><tspan
             sodipodi:role="line"
             id="tspan80"
             style="font-style:italic;font-variant:normal;font-weight:bold;font-stretch:normal;font-size:46.4892px;font-family:Arial;-inkscape-font-specification:'Arial, Bold Italic';font-variant-ligatures:normal;font-variant-caps:normal;font-variant-numeric:normal;font-variant-east-asian:normal;fill:#cb181f;fill-opacity:1;stroke-width:1.74335"
             x="567.26208"
             y="92.641861">8</tspan></text><text
           xml:space="preserve"
           style="font-style:italic;font-variant:normal;font-weight:bold;font-stretch:normal;font-size:46.4892px;font-family:Arial;-inkscape-font-specification:'Arial, Bold Italic';font-variant-ligatures:normal;font-variant-caps:normal;font-variant-numeric:normal;font-variant-east-asian:normal;fill:#cb181f;fill-opacity:1;stroke-width:1.74335"
           x="658.5929"
           y="92.664589"
           id="rpm_9_mark"
           inkscape:label="rpm_9_mark"
           transform="scale(0.96961866,1.0313333)"><tspan
             sodipodi:role="line"
             id="tspan81"
             style="font-style:italic;font-variant:normal;font-weight:bold;font-stretch:normal;font-size:46.4892px;font-family:Arial;-inkscape-font-specification:'Arial, Bold Italic';font-variant-ligatures:normal;font-variant-caps:normal;font-variant-numeric:normal;font-variant-east-asian:normal;fill:#cb181f;fill-opacity:1;stroke-width:1.74335"
             x="658.5929"
             y="92.664589">9</tspan></text></g><text
         xml:space="preserve"
         style="font-style:normal;font-variant:normal;font-weight:normal;font-stretch:normal;font-size:18.5957px;font-family:Arial;-inkscape-font-specification:'Arial, Normal';font-variant-ligatures:normal;font-variant-caps:normal;font-variant-numeric:normal;font-variant-east-asian:normal;display:inline;fill:#ffffff;fill-opacity:0.976471;stroke-width:1.74335"
         x="127.87718"
         y="408.97501"
         id="text103"
         inkscape:label="rpm_mark"
         transform="scale(0.96961865,1.0313333)"><tspan
           sodipodi:role="line"
           id="tspan103"
           style="font-style:normal;font-variant:normal;font-weight:normal;font-stretch:normal;font-size:18.5957px;font-family:Arial;-inkscape-font-specification:'Arial, Normal';font-variant-ligatures:normal;font-variant-caps:normal;font-variant-numeric:normal;font-variant-east-asian:normal;stroke-width:1.74335"
           x="127.87718"
           y="408.97501">RPM</tspan><tspan
           sodipodi:role="line"
           style="font-style:normal;font-variant:normal;font-weight:normal;font-stretch:normal;font-size:18.5957px;font-family:Arial;-inkscape-font-specification:'Arial, Normal';font-variant-ligatures:normal;font-variant-caps:normal;font-variant-numeric:normal;font-variant-east-asian:normal;stroke-width:1.74335"
           x="127.87718"
           y="432.21964"
           id="tspan104" /></text><text
         xml:space="preserve"
         style="font-style:normal;font-variant:normal;font-weight:normal;font-stretch:normal;font-size:18.5957px;font-family:Arial;-inkscape-font-specification:'Arial, Normal';font-variant-ligatures:normal;font-variant-caps:normal;font-variant-numeric:normal;font-variant-east-asian:normal;display:inline;fill:#ffffff;fill-opacity:0.976471;stroke-width:1.74335"
         x="131.57445"
         y="426.59155"
         id="text106"
         inkscape:label="rpm_x1000_mark"
         transform="scale(0.96961865,1.0313333)"><tspan
           sodipodi:role="line"
           id="tspan105"
           style="font-style:normal;font-variant:normal;font-weight:normal;font-stretch:normal;font-size:18.5957px;font-family:Arial;-inkscape-font-specification:'Arial, Normal';font-variant-ligatures:normal;font-variant-caps:normal;font-variant-numeric:normal;font-variant-east-asian:normal;stroke-width:1.74335"
           x="131.57445"
           y="426.59155">X 1000</tspan><tspan
           sodipodi:role="line"
           style="font-style:normal;font-variant:normal;font-weight:normal;font-stretch:normal;font-size:18.5957px;font-family:Arial;-inkscape-font-specification:'Arial, Normal';font-variant-ligatures:normal;font-variant-caps:normal;font-variant-numeric:normal;font-variant-east-asian:normal;stroke-width:1.74335"
           x="131.57445"
           y="449.83618"
           id="tspan106" /></text><text
         xml:space="preserve"
         style="font-size:30.687px;font-family:Consolas;-inkscape-font-specification:'Consolas, Normal';display:inline;fill:#ffffff;fill-opacity:0.976471;stroke-width:0.115076"
         x="728.96375"
         y="389.60281"
         id="speed_mark"
         transform="scale(0.96961865,1.0313333)"><tspan
           sodipodi:role="line"
           id="tspan63"
           style="font-style:normal;font-variant:normal;font-weight:normal;font-stretch:normal;font-size:30.687px;font-family:Arial;-inkscape-font-specification:'Arial, Normal';font-variant-ligatures:normal;font-variant-caps:normal;font-variant-numeric:normal;font-variant-east-asian:normal;fill:#ffffff;stroke-width:0.115076"
           x="728.96375"
           y="389.60281">km/h</tspan></text></g></g><g
     inkscape:label="圖層 1"
     inkscape:groupmode="layer"
     id="layer1"
     style="display:inline"><g
       id="rpm"
       inkscape:label="#rpm"
       transform="translate(0,19.050006)"><g
         id="rpm_0-1_mark"
         transform="matrix(6.3888495,0,0,6.7954889,-253.26533,-766.75761)"
         style="opacity:1"
         inkscape:label="rpm_0-1_mark"><path
           style="opacity:1;fill:#727f90;fill-opacity:1;stroke-width:0.264583"
           d="m 58.050203,159.66312 -6.540686,0.006 -0.06098,2.59105 a 2.2645475,2.2645475 0 0 0 0.938444,1.88981 l 7.017143,5.06584 3.247347,-3.44062 -3.676261,-3.23184 A 2.8856266,2.8856266 0 0 1 58.007827,160.097 Z"
           id="path29" /><path
           style="opacity:1;fill:#5a6065;fill-opacity:1;stroke-width:0.264583"
           d="m 58.050203,159.66312 -5.145422,0.005 -0.09147,1.86862 a 2.2159316,2.2159316 0 0 0 0.903304,1.89549 l 6.640938,4.86844 2.293917,-2.52543 -3.676261,-3.23184 a 2.8856266,2.8856266 0 0 1 -0.967383,-2.44636 z"
           id="path38" /><path
           style="opacity:1;fill:#454947;fill-opacity:1;stroke-width:0.264583"
           d="m 58.050203,159.66312 -1.575097,0.002 -0.02635,1.22318 a 2.4269741,2.4269741 0 0 0 0.901237,1.94097 l 4.571297,3.69125 0.730188,-0.74518 -3.676261,-3.23184 a 2.8856266,2.8856266 0 0 1 -0.967383,-2.44636 z"
           id="path47" /></g><g
         id="rpm_1-2_mark"
         transform="matrix(6.3888495,0,0,6.7954889,-253.26533,-766.75761)"
         style="opacity:1"
         inkscape:label="rpm_1-2_mark"><path
           style="opacity:1;fill:#727f90;fill-opacity:1;stroke-width:0.264583"
           d="m 51.810791,146.93573 -0.289388,12.23285 6.577376,-0.006 0.865064,-8.9085 z"
           id="path28" /><path
           style="opacity:1;fill:#5a6065;fill-opacity:1;stroke-width:0.264583"
           d="m 53.489758,147.71501 -0.560689,11.45254 5.16971,-0.005 0.865064,-8.9085 z"
           id="path37" /><path
           style="opacity:1;fill:#454947;fill-opacity:1;stroke-width:0.264583"
           d="m 56.701965,149.20485 -0.216007,9.95959 1.612821,-0.002 0.865064,-8.9085 z"
           id="path46" /></g><g
         id="rpm_2-3_mark"
         transform="matrix(6.3888495,0,0,6.7954889,-253.26533,-766.75761)"
         style="opacity:1"
         inkscape:label="rpm_2-3_mark"><path
           style="opacity:1;fill:#727f90;fill-opacity:1;stroke-width:0.264583"
           d="m 59.329195,133.97063 -5.226037,2.76986 a 4.0144001,4.0144001 0 0 0 -2.133204,3.45199 l -0.146244,6.19807 7.191292,3.33623 0.366386,-3.76876 a 2.4486238,2.4486238 0 0 1 1.487248,-2.02004 l 3.870048,-1.62884 z"
           id="path27" /><path
           style="opacity:1;fill:#5a6065;fill-opacity:1;stroke-width:0.264583"
           d="m 60.144132,135.22689 -4.126363,2.18746 a 4.133637,4.133637 0 0 0 -2.192631,3.44992 l -0.309025,6.31176 5.498889,2.55075 0.366386,-3.76876 a 2.4486238,2.4486238 0 0 1 1.487248,-2.02004 l 3.870048,-1.62884 z"
           id="path36" /><path
           style="opacity:1;fill:#454947;fill-opacity:1;stroke-width:0.264583"
           d="m 62.719686,139.19719 -3.779098,1.95802 a 3.9631944,3.9631944 0 0 0 -2.138887,3.43286 l -0.08837,4.07107 2.301668,1.06764 0.366386,-3.76876 a 2.4486238,2.4486238 0 0 1 1.487248,-2.02055 l 3.870048,-1.62833 z"
           id="path45" /></g><g
         id="rpm_3-4_mark"
         transform="matrix(6.3888495,0,0,6.7954889,-253.26533,-766.75761)"
         style="opacity:1"
         inkscape:label="rpm_3-4_mark"><path
           style="opacity:1;fill:#727f90;fill-opacity:1;stroke-width:0.264583"
           d="m 69.876872,129.68976 a 9.9167333,9.9167333 0 0 0 -4.649329,1.15445 l -5.454447,2.8913 5.434293,8.37675 4.209562,-1.77147 a 13.991289,13.991289 0 0 1 5.127853,-1.07125 l -1.284159,-9.57823 z"
           id="path11" /><path
           style="opacity:1;fill:#5a6065;fill-opacity:1;stroke-width:0.264583"
           d="m 69.958004,131.33669 a 9.8952326,9.8952326 0 0 0 -4.649329,1.15238 l -4.720642,2.50269 4.619356,7.1205 4.209562,-1.77147 a 13.991289,13.991289 0 0 1 5.127853,-1.07125 l -1.062984,-7.92769 z"
           id="path14" /><path
           style="opacity:1;fill:#454947;fill-opacity:1;stroke-width:0.264583"
           d="m 71.360502,135.99893 a 10.122989,10.122989 0 0 0 -4.660181,1.13534 l -3.534151,1.83141 2.040703,3.14658 4.210078,-1.77147 a 13.991289,13.991289 0 0 1 5.127853,-1.07125 l -0.438733,-3.27009 z"
           id="path16" /></g><g
         id="rpm_4-5_mark"
         transform="matrix(6.3888495,0,0,6.7954889,-253.26533,-766.75761)"
         style="opacity:1"
         inkscape:label="rpm_4-5_mark"><path
           style="opacity:1;fill:#727f90;fill-opacity:1;stroke-width:0.264583"
           d="m 73.765007,129.69183 1.280542,9.55238 11.277864,-0.0512 v -9.49451 z"
           id="path21" /><path
           style="opacity:1;fill:#5a6065;fill-opacity:1;stroke-width:0.264583"
           d="m 73.986182,131.34289 1.059367,7.90132 11.277864,-0.0512 v -7.83208 z"
           id="path30" /><path
           style="opacity:1;fill:#454947;fill-opacity:1;stroke-width:0.264583"
           d="m 74.61095,135.99997 0.434599,3.24424 11.277864,-0.0512 v -3.1905 z"
           id="path39" /></g><g
         id="rpm_5-6_mark"
         transform="matrix(6.3888495,0,0,6.7954889,-253.26533,-766.75761)"
         style="opacity:1"
         inkscape:label="rpm_5-6_mark"><g
           id="g61"
           transform="translate(0,-10.054167)"><path
             id="path61"
             style="opacity:1;fill:#ae311e;fill-opacity:1;stroke-width:0.264583"
             d="m 93.457861,129.70216 v 9.45885 l 5.511292,-0.0248 0.509013,-9.43095 z"
             transform="translate(0,10.054167)" /><path
             id="path57"
             style="opacity:1;fill:#7c2e1c;fill-opacity:1;stroke-width:0.264583"
             d="m 93.457861,131.37183 v 7.78918 l 5.511292,-0.0248 0.418579,-7.7556 z"
             transform="translate(0,10.054167)" /><path
             id="path58"
             style="opacity:1;fill:#5b2d1b;fill-opacity:1;stroke-width:0.264583"
             d="m 93.457861,136.0041 v 3.15691 l 5.511292,-0.0248 0.168982,-3.13056 z"
             transform="translate(0,10.054167)" /></g><g
           id="g52"><path
             id="path22"
             style="opacity:1;fill:#727f90;fill-opacity:1;stroke-width:0.264583"
             d="m 86.823124,129.69854 v 9.49245 l 6.634737,-0.03 v -9.45885 z" /><path
             id="path31"
             style="opacity:1;fill:#5a6065;fill-opacity:1;stroke-width:0.264583"
             d="m 86.823124,131.36149 v 7.8295 l 6.634737,-0.03 v -7.78918 z" /><path
             id="path40"
             style="opacity:1;fill:#454947;fill-opacity:1;stroke-width:0.264583"
             d="m 86.823124,136.00255 v 3.18844 l 6.634737,-0.03 v -3.15691 z" /></g></g><g
         id="rpm_6-7_mark"
         transform="matrix(6.3888495,0,0,6.7954889,-253.26533,-766.75761)"
         style="opacity:1"
         inkscape:label="rpm_6-7_mark"><path
           style="opacity:1;fill:#ae311e;fill-opacity:1;stroke-width:0.264583"
           d="m 99.97891,129.70578 -0.509013,9.42785 10.971423,-0.0491 2.1146,-9.37255 z"
           id="path23" /><path
           style="opacity:1;fill:#7c2e1c;fill-opacity:1;stroke-width:0.264583"
           d="m 99.888477,131.38113 -0.41858,7.7525 10.971423,-0.0491 1.73375,-7.68532 z"
           id="path32" /><path
           style="opacity:1;fill:#5b2d1b;fill-opacity:1;stroke-width:0.264583"
           d="m 99.638879,136.00565 -0.168982,3.12798 10.971423,-0.0491 0.69402,-3.07578 z"
           id="path41" /></g><g
         id="rpm_7-8_mark"
         transform="matrix(6.3888495,0,0,6.7954889,-253.26533,-766.75761)"
         style="opacity:1"
         inkscape:label="rpm_7-8_mark"><path
           style="opacity:1;fill:#ae311e;fill-opacity:1;stroke-width:0.264583"
           d="m 113.06855,129.7125 -2.11408,9.36945 11.23445,-0.0506 4.24212,-9.3121 z"
           id="path24" /><path
           style="opacity:1;fill:#7c2e1c;fill-opacity:1;stroke-width:0.264583"
           d="m 112.6877,131.40025 -1.73323,7.6817 11.23445,-0.0506 3.46801,-7.61194 z"
           id="path33" /><path
           style="opacity:1;fill:#5b2d1b;fill-opacity:1;stroke-width:0.264583"
           d="m 111.64797,136.00875 -0.6935,3.0732 11.23445,-0.0506 1.37563,-3.01997 z"
           id="path42" /></g><g
         id="rpm_8-9_mark"
         transform="matrix(6.3888495,0,0,6.7954889,-253.26533,-766.75761)"
         style="opacity:1"
         inkscape:label="rpm_8-9_mark"><path
           style="opacity:1;fill:#ae311e;fill-opacity:1;stroke-width:0.264583"
           d="m 126.98088,129.71973 -4.2416,9.30899 10.82414,-0.0486 6.44819,-9.2537 z"
           id="path25" /><path
           style="opacity:1;fill:#7c2e1c;fill-opacity:1;stroke-width:0.264583"
           d="m 126.20625,131.4204 -3.46697,7.60832 10.82414,-0.0486 5.25498,-7.54114 z"
           id="path34" /><path
           style="opacity:1;fill:#5b2d1b;fill-opacity:1;stroke-width:0.264583"
           d="m 124.11439,136.01185 -1.37511,3.01687 10.82414,-0.0486 2.06654,-2.96571 z"
           id="path43" /></g><g
         id="g56"
         transform="matrix(6.3888495,0,0,6.7954889,-253.26533,-766.75761)"
         style="opacity:1"
         inkscape:label="rpm_9_mark"><path
           id="path26"
           style="opacity:1;fill:#ae311e;fill-opacity:1;stroke-width:0.264583"
           d="m 140.62082,129.72699 -6.44602,9.25004 11.06376,-0.0497 8.94727,-9.19316 z"
           inkscape:label="path26" /><path
           id="path35"
           style="opacity:1;fill:#7c2e1c;fill-opacity:1;stroke-width:0.264583"
           d="m 139.42709,131.44 -5.25229,7.53703 11.06376,-0.0497 7.26823,-7.46801 z" /><path
           id="path44"
           style="opacity:1;fill:#5b2d1b;fill-opacity:1;stroke-width:0.264583"
           d="m 136.23926,136.01447 -2.06446,2.96256 11.06376,-0.0497 2.83207,-2.90985 z" /></g></g><g
       id="g4"
       inkscape:label="call"
       transform="translate(46.037523)"><path
         d="m 222.52145,428.8669 c 3.11415,0.36797 5.91657,1.97049 8.13358,4.32566 2.217,2.35515 3.71685,5.33932 4.06679,8.65127 m -13.21707,-5.40705 c 1.49902,0.31099 2.98685,1.01426 4.0668,2.16282 1.07987,1.1486 1.741,2.73129 2.03338,4.32562 m -18.90958,13.6236 c -14.02633,-14.9208 -12.03183,-21.75328 -10.5532,-23.95503 0.18998,-0.35589 4.87185,-7.81054 9.89053,-3.43691 12.457,10.91223 -2.7951,10.52413 7.147,20.49751 9.94207,9.97343 9.012,-5.64784 19.26947,7.59929 4.11215,5.34023 -2.89677,10.31989 -3.22923,10.51974 -2.07,1.57495 -8.49614,3.69624 -22.52457,-11.2246 z"
         stroke="#000000"
         stroke-width="3.14567"
         stroke-linecap="round"
         stroke-linejoin="round"
         id="call_icon"
         style="display:inline;fill:#00ff00;stroke:#00ff00;stroke-opacity:1"
         inkscape:label="call_icon" /><text
         xml:space="preserve"
         style="font-style:normal;font-variant:normal;font-weight:normal;font-stretch:normal;font-size:34.1789px;font-family:Arial;-inkscape-font-specification:'Arial, Normal';font-variant-ligatures:normal;font-variant-caps:normal;font-variant-numeric:normal;font-variant-east-asian:normal;display:inline;opacity:1;fill:#ffffff;fill-opacity:0.976471;stroke-width:1.53537"
         x="179.28899"
         y="265.05255"
         id="phone_number"
         inkscape:label="call_number"
         transform="matrix(1.6666667,0,0,1.7727472,-40.399782,-0.15700819)"><tspan
           sodipodi:role="line"
           id="tspan126"
           style="font-style:normal;font-variant:normal;font-weight:normal;font-stretch:normal;font-size:34.1789px;font-family:Arial;-inkscape-font-specification:'Arial, Normal';font-variant-ligatures:normal;font-variant-caps:normal;font-variant-numeric:normal;font-variant-east-asian:normal;stroke-width:1.53537"
           x="179.28899"
           y="265.05255">09123456789</tspan><tspan
           sodipodi:role="line"
           style="font-style:normal;font-variant:normal;font-weight:normal;font-stretch:normal;font-size:34.1789px;font-family:Arial;-inkscape-font-specification:'Arial, Normal';font-variant-ligatures:normal;font-variant-caps:normal;font-variant-numeric:normal;font-variant-east-asian:normal;stroke-width:1.53537"
           x="179.28899"
           y="307.77618"
           id="tspan127" /></text></g><text
       xml:space="preserve"
       style="font-style:normal;font-variant:normal;font-weight:normal;font-stretch:normal;font-size:36.1252px;font-family:'Ami R';-inkscape-font-specification:'Ami R, Normal';font-variant-ligatures:normal;font-variant-caps:normal;font-variant-numeric:normal;font-variant-east-asian:normal;fill:#ffffff;fill-opacity:0.976471;stroke-width:1.12891"
       x="384.93411"
       y="48.981972"
       id="trip"
       transform="scale(0.9737398,1.0269684)"><tspan
         sodipodi:role="line"
         id="tspan75"
         style="font-style:normal;font-variant:normal;font-weight:normal;font-stretch:normal;font-size:36.1252px;font-family:'Ami R';-inkscape-font-specification:'Ami R, Normal';font-variant-ligatures:normal;font-variant-caps:normal;font-variant-numeric:normal;font-variant-east-asian:normal;stroke-width:1.12891"
         x="384.93411"
         y="48.981972">0.0</tspan></text><text
       xml:space="preserve"
       style="font-style:normal;font-variant:normal;font-weight:normal;font-stretch:normal;font-size:41.8404px;font-family:Arial;-inkscape-font-specification:'Arial, Normal';font-variant-ligatures:normal;font-variant-caps:normal;font-variant-numeric:normal;font-variant-east-asian:normal;fill:#ffffff;fill-opacity:0.976471;stroke-width:1.74335"
       x="719.79425"
       y="457.40686"
       id="time"
       transform="scale(0.96961865,1.0313333)"><tspan
         sodipodi:role="line"
         id="tspan102"
         style="font-style:normal;font-variant:normal;font-weight:normal;font-stretch:normal;font-size:41.8404px;font-family:Arial;-inkscape-font-specification:'Arial, Normal';font-variant-ligatures:normal;font-variant-caps:normal;font-variant-numeric:normal;font-variant-east-asian:normal;stroke-width:1.74335"
         x="719.79425"
         y="457.40686">15:01</tspan></text><g
       style="fill:#ac53ac;fill-opacity:1"
       id="g127"
       transform="matrix(-0.27578543,0,0,0.2933387,272.3354,-121.43119)"
       inkscape:label="navigation"><path
         id="path91"
         d="m 264.02688,1247.6446 v -45.478 c -0.008,-9.697 5.364,-18.611 13.946,-23.123 8.576,-4.529 18.959,-3.935 26.964,1.541 l 177.316,121.375 c 6.351,4.349 10.158,11.531 10.172,19.221 0.025,7.692 -3.733,14.903 -10.052,19.286 l -177.283,122.947 c -7.99,5.559 -18.405,6.201 -27.02,1.688 -8.623,-4.512 -14.019,-13.424 -14.027,-23.156 v -38.301 c -93.167,2.682 -174.585004,50.617 -221.525004,122.049 -5.484,8.334 -15.963,12.189 -25.775,9.475 -9.805,-2.713 -16.62899995,-11.371 -16.72599995,-21.262 -0.009,-0.885 -0.0170000037,-1.768 -0.0170000037,-2.65 0,-143.135 117.4810039537,-259.354 264.0270039537,-263.612 z"
         style="display:inline;fill:#ac53ac;fill-opacity:1"
         inkscape:label="navigation_left" /><path
         id="direction"
         d="m 228.398,1247.6446 v -45.478 c 0.008,-9.697 -5.364,-18.611 -13.946,-23.123 -8.576,-4.529 -18.959,-3.935 -26.964,1.541 l -177.316,121.375 c -6.351,4.349 -10.158,11.531 -10.172,19.221 -0.025,7.692 3.733,14.903 10.052,19.286 l 177.283,122.947 c 7.99,5.559 18.405,6.201 27.02,1.688 8.623,-4.512 14.019,-13.424 14.027,-23.156 v -38.301 c 93.167,2.682 174.585,50.617 221.525,122.049 5.484,8.334 15.963,12.189 25.775,9.475 9.805,-2.713 16.629,-11.371 16.726,-21.262 0.009,-0.885 0.017,-1.768 0.017,-2.65 0,-143.135 -117.481,-259.354 -264.027,-263.612 z"
         style="fill:#ac53ac;fill-opacity:1"
         inkscape:label="navigation_right" /></g><g
       id="g89"
       inkscape:label="gear"
       transform="matrix(2.2916662,0,0,2.4375269,-883.37672,-23.680429)"><path
         d="m 716.68569,136.73424 v -34.59492 l -6.48654,6.48655"
         stroke="#292929"
         stroke-width="5.40546"
         stroke-linecap="round"
         stroke-linejoin="round"
         id="gear_1"
         clip-path="url(#clipPath1)"
         style="display:inline;fill:none;stroke:#55ff00;stroke-opacity:1" /><path
         d="m 704.7901,110.77615 c 0,-2.21433 0.84472,-4.42865 2.5342,-6.11813 3.37901,-3.37894 8.85723,-3.37894 12.23618,0 3.37895,3.37893 3.37895,8.85728 0,12.23619 l -12.23618,12.23633 c -1.62261,1.62253 -2.5342,3.82324 -2.5342,6.11806 v 1.48452 h 17.30465"
         stroke="#292929"
         stroke-width="5.4077"
         stroke-linecap="round"
         stroke-linejoin="round"
         id="path1-3"
         clip-path="url(#clipPath1)"
         style="display:inline;fill:none;stroke:#55ff00;stroke-opacity:1"
         inkscape:label="gear_2" /><path
         d="m 704.79377,134.57297 c 1.80683,1.35719 4.05273,2.1613 6.48648,2.1613 5.9706,0 10.81082,-4.84022 10.81082,-10.81081 0,-5.9706 -4.84022,-10.81081 -10.81082,-10.81081 l 10.81082,-12.97298 h -17.2973"
         stroke="#292929"
         stroke-width="5.40541"
         stroke-linecap="round"
         stroke-linejoin="round"
         id="path1-8"
         clip-path="url(#clipPath1)"
         style="display:inline;fill:none;stroke:#55ff00;stroke-opacity:1"
         inkscape:label="gear_3" /><path
         d="m 708.64173,102.13967 -3.28984,16.4493 c -0.53517,2.67568 1.51151,5.17232 4.24033,5.17232 h 12.02249 m 0,0 v -12.97297 m 0,12.97297 v 12.97298"
         stroke="#292929"
         stroke-width="5.40541"
         stroke-linecap="round"
         stroke-linejoin="round"
         id="path1-2"
         clip-path="url(#clipPath1)"
         style="display:inline;fill:none;stroke:#55ff00;stroke-opacity:1"
         inkscape:label="gear_4" /><path
         d="m 704.79377,134.57297 c 1.80683,1.35719 4.05273,2.1613 6.48648,2.1613 5.9706,0 10.81082,-4.84022 10.81082,-10.81081 0,-5.9706 -4.84022,-10.81081 -10.81082,-10.81081 -2.43375,0 -4.67965,0.8041 -6.48648,2.16129 l 2.16216,-15.13427 h 15.13514"
         stroke="#292929"
         stroke-width="5.40541"
         stroke-linecap="round"
         stroke-linejoin="round"
         id="path1-7"
         clip-path="url(#clipPath1)"
         style="display:inline;fill:none;stroke:#55ff00;stroke-opacity:1"
         inkscape:label="gear_5" /><path
         d="m 715.60458,102.13967 -11.30134,18.00627 m 19.94999,5.77752 c 0,5.97059 -4.84022,10.81081 -10.81081,10.81081 -5.97064,0 -10.81081,-4.84022 -10.81081,-10.81081 0,-5.9706 4.84017,-10.81081 10.81081,-10.81081 5.97059,0 10.81081,4.84021 10.81081,10.81081 z"
         stroke="#292929"
         stroke-width="5.40541"
         stroke-linecap="round"
         id="path1-36"
         clip-path="url(#clipPath1)"
         style="display:inline;fill:none;stroke:#55ff00;stroke-opacity:1"
         inkscape:label="gear_6" /><path
         d="m 704.79383,102.13967 h 17.2973 l -12.97298,34.5946"
         stroke="#292929"
         stroke-width="5.40541"
         stroke-linecap="round"
         stroke-linejoin="round"
         id="path1-6"
         clip-path="url(#clipPath1)"
         style="display:inline;fill:none;stroke:#55ff00;stroke-opacity:1"
         inkscape:label="gear_7" /><g
         clip-path="url(#clip0_429_10994)"
         id="g2"
         style="display:inline;fill:none;stroke:#55ff00;stroke-opacity:1"
         inkscape:label="gear_8"
         transform="matrix(2.1621622,0,0,2.1621622,687.49647,93.491024)"><circle
           cx="12"
           cy="15"
           r="5"
           stroke="#292929"
           stroke-width="2.5"
           stroke-linejoin="round"
           id="circle1"
           style="stroke:#55ff00;stroke-opacity:1" /><circle
           cx="12"
           cy="7"
           r="3"
           stroke="#292929"
           stroke-width="2.5"
           stroke-linejoin="round"
           id="circle2"
           style="stroke:#55ff00;stroke-opacity:1" /></g><path
         d="M 711.28025,136.73427 722.58166,118.728 m -19.95005,-5.77752 c 0,-5.97063 4.84017,-10.81081 10.81081,-10.81081 5.97059,0 10.81081,4.84018 10.81081,10.81081 0,5.9706 -4.84022,10.81081 -10.81081,10.81081 -5.97064,0 -10.81081,-4.84021 -10.81081,-10.81081 z"
         stroke="#292929"
         stroke-width="5.40541"
         stroke-linecap="round"
         id="path1-66"
         clip-path="url(#clipPath1)"
         style="display:inline;fill:none;stroke:#55ff00;stroke-opacity:1"
         inkscape:label="gear_9" /><path
         fill="#ffffff"
         d="m 699.3197,103.78159 c 0,-2.67361 1.50391,-4.34462 4.29072,-4.34462 h 9.80505 c 8.57964,0 13.87117,3.84512 13.87117,12.59006 0,6.12883 -4.62312,9.63795 -10.30635,10.52915 l 9.47265,10.14105 c 0.778,0.83551 1.1122,1.67101 1.1122,2.45081 0,2.17232 -1.7267,4.28893 -4.17572,4.28893 -1.0044,0 -2.34121,-0.38991 -3.23242,-1.44821 l -12.36726,-14.98697 h -0.1114 v 12.08876 c 0,2.78681 -1.78241,4.34462 -4.17932,4.34462 -2.39691,0 -4.17932,-1.55781 -4.17932,-4.34462 z m 8.35685,13.20277 h 5.73713 c 3.06351,0 5.18192,-1.83811 5.18192,-4.95733 0,-3.17492 -2.12021,-4.90342 -5.18192,-4.90342 h -5.73713 z"
         id="path87"
         style="display:inline;fill:#55ff00;fill-opacity:1;stroke:none;stroke-width:1.79679;stroke-opacity:1"
         inkscape:label="gear_R" /><path
         fill="#ffffff"
         d="m 696.67403,103.74579 c 0,-2.76206 1.76772,-4.308819 4.14488,-4.308819 1.04958,0 2.76206,0.828619 3.48197,1.822959 l 17.51504,23.37239 h 0.11048 v -20.88653 c 0,-2.76206 1.76772,-4.308819 4.14131,-4.308819 2.37716,0 4.14488,1.546759 4.14488,4.308819 v 31.38236 c 0,2.76384 -1.76772,4.30882 -4.14488,4.30882 -1.0478,0 -2.70504,-0.82862 -3.48019,-1.82118 L 705.07248,114.51961 H 704.962 v 20.60854 c 0,2.76384 -1.76772,4.30882 -4.14488,4.30882 -2.37715,0 -4.14487,-1.54498 -4.14487,-4.30882 v -31.38236 z"
         id="path88"
         style="display:inline;fill:#55ff00;fill-opacity:1;stroke-width:1.78198"
         inkscape:label="gear_N" /><path
         fill="#ffffff"
         d="m 699.2074,103.7816 c 0,-2.61971 1.55961,-4.344624 4.34642,-4.344624 h 9.86075 c 8.19154,0 14.26287,5.349024 14.26287,13.314164 0,8.13404 -6.29593,13.20457 -13.92687,13.20457 h -6.18274 v 9.13664 c 0,2.78681 -1.78241,4.34462 -4.17932,4.34462 -2.3969,0 -4.17931,-1.55781 -4.17931,-4.34462 V 103.7816 Z m 8.35684,14.81987 h 5.68143 c 3.51092,0 5.73893,-2.56221 5.73893,-5.90603 0,-3.34201 -2.22801,-5.90602 -5.73893,-5.90602 h -5.68143 z"
         id="gear_P"
         style="display:inline;fill:#55ff00;fill-opacity:1;stroke-width:1.79678"
         inkscape:label="gear_P" /></g><path
       d="m 343.3135,229.39842 c -6.76157,15.00925 -23.93008,23.38942 -51.03518,24.95288 l -7.9375,0.43779 v 10.94425 10.94425 l 2.52823,0.1876 c 2.11667,0.18763 2.52825,0.37524 2.35185,1.4384 -0.17638,1.18823 0.2352,1.25077 21.46065,1.18823 h 21.57825 v 56.9101 56.91011 h 2.35185 c 2.11667,0 2.35185,0.12516 2.35185,1.56348 v 1.56345 h 18.81482 18.81482 v -83.489 c 0,-81.80048 0,-83.48902 -1.11714,-83.48902 -0.88193,0 -1.23471,-0.62537 -1.5287,-2.50154 l -0.41156,-2.50154 -12.99399,0.0625 h -13.05278 z"
       id="path51"
       style="fill:#ffffff;stroke:#ffffff;stroke-width:0.0606386;stroke-opacity:1"
       inkscape:label="speed_hundred_1" /><g
       id="g76"
       inkscape:label="speed_tens"
       transform="matrix(1.6666667,0,0,1.7727472,2.1749351,15.350329)"><path
         d="m 267.29178,115.82032 c -10.65389,1.34056 -18.45028,4.90362 -24.69444,11.28889 -5.85611,5.99723 -8.64306,13.0175 -8.64306,21.76639 0,4.86834 0.42334,7.65528 1.72861,11.46528 1.97556,5.715 5.32695,10.37167 10.86556,15.09889 5.92667,5.04473 13.54667,7.79639 22.71889,8.18445 9.63083,0.42333 16.86278,-1.69334 21.87222,-6.38528 l 1.48167,-1.41111 -0.21167,2.99861 c -0.49389,6.49111 -2.96333,12.77056 -6.24416,16.05139 -3.45723,3.45722 -7.3025,4.86833 -13.22917,4.83306 -6.24417,0 -10.58334,-1.69334 -12.10028,-4.69195 -0.42333,-0.88194 -0.98778,-1.5875 -1.23472,-1.5875 -0.21167,0 -0.67028,-0.67028 -0.9525,-1.51694 l -0.49389,-1.48167 -11.32417,0.0706 -11.28889,0.10584 0.14111,1.5875 c 0.17639,2.57528 1.41111,5.99722 3.03389,8.67833 1.65806,2.61056 6.87917,7.97278 9.80722,9.98361 4.19806,2.89278 10.93612,5.25639 17.67417,6.24417 5.22111,0.77611 14.81667,0.49389 19.43806,-0.52917 16.22778,-3.63361 25.32945,-12.87639 29.80972,-30.23305 4.97417,-19.22639 2.89278,-41.45139 -4.90361,-52.70501 -2.18722,-3.175 -8.50194,-9.38389 -11.60639,-11.43 -8.43139,-5.57389 -19.89667,-7.86694 -31.64417,-6.38528 z m 13.72306,17.32139 c 5.99722,1.44639 9.17222,4.72723 10.65389,10.97139 0.67028,2.89278 0.49389,8.14917 -0.35278,10.90084 -0.84666,2.75166 -3.21028,5.99722 -5.57389,7.76111 -3.70416,2.71639 -8.00805,3.88056 -13.15861,3.56306 -6.87917,-0.45862 -11.07722,-2.96334 -13.0175,-7.86695 -2.50472,-6.20889 -1.86972,-13.97 1.51694,-19.08528 3.95112,-5.92667 11.50056,-8.29028 19.93195,-6.24417 z"
         id="path59"
         style="fill:#ffffff;stroke:none;stroke-width:0.0352778"
         inkscape:label="speed_tens_9" /><path
         d="m 266.0667,115.94727 c -12.98222,2.04611 -23.07167,7.97277 -27.09333,16.01611 -3.06917,6.06778 -3.10445,13.54667 -0.10584,18.7325 1.72861,2.99861 6.87917,7.76111 10.40695,9.63083 1.86972,0.98778 1.905,0.91723 -1.16417,2.39889 -6.49111,3.13972 -11.78278,8.18445 -13.82889,13.19389 -1.37583,3.31611 -1.51694,4.26861 -1.51694,9.34861 0.0353,4.58611 0.10583,5.3975 0.98777,7.9375 0.49389,1.55223 1.51695,3.84528 2.25778,5.11528 1.5875,2.68111 6.73806,8.18445 9.98361,10.61861 8.11389,6.10306 21.59001,9.27806 35.59528,8.36084 12.80584,-0.81139 22.89528,-4.7625 29.88028,-11.71223 2.78695,-2.78694 4.55084,-5.36222 5.92667,-8.60777 3.03389,-7.16139 2.43417,-16.79223 -1.37583,-22.47195 -2.64584,-3.98639 -7.62,-8.32556 -12.84111,-11.21833 l -2.25778,-1.23473 2.57528,-1.27 c 6.06777,-2.99861 9.41916,-6.84389 11.1125,-12.73527 1.37583,-4.65667 0.35277,-11.64167 -2.2225,-15.69862 -1.48167,-2.32833 -6.20889,-7.23194 -8.74889,-9.03111 -5.00945,-3.56305 -12.66473,-6.38528 -20.07306,-7.37305 -4.7625,-0.635 -13.40556,-0.635 -17.49778,0 z m 17.39195,17.07444 c 6.73805,1.72861 9.56028,4.65667 9.56028,9.91306 0.0353,3.06916 -1.02306,5.43278 -3.42195,7.72583 -3.56306,3.35139 -7.83167,4.7625 -14.32278,4.7625 -4.58611,0 -7.33778,-0.59972 -10.83028,-2.29305 -2.75166,-1.34056 -4.1275,-2.96334 -4.90361,-5.85612 -0.52916,-1.905 -0.56444,-2.61055 -0.21166,-4.445 0.67027,-3.63361 3.52777,-6.94972 7.37305,-8.60777 4.48028,-1.905 11.85334,-2.43417 16.75695,-1.19945 z m 0.98777,38.13528 c 3.42195,1.16417 4.69195,1.905 6.27945,3.73945 2.25778,2.54 3.03389,4.90361 3.03389,9.31333 0.0353,4.93889 -0.77611,7.05556 -3.81,10.08945 -3.70417,3.66888 -7.97278,5.22111 -14.67556,5.22111 -4.86833,0.0353 -7.65528,-0.52917 -11.04194,-2.2225 -3.06917,-1.55223 -4.51556,-3.31611 -5.57389,-6.80862 -1.62278,-5.29166 -0.28222,-11.1125 3.42194,-15.09889 1.94028,-2.08138 5.53861,-3.98638 8.96056,-4.7625 3.35139,-0.77611 10.37167,-0.49388 13.40555,0.52917 z"
         id="path60"
         style="fill:#ffffff;stroke:none;stroke-width:0.0352778"
         inkscape:label="speed_tens_8" /><path
         d="M 233.00721,126.42333 V 134.89 h 1.44639 c 1.27,0 1.44639,0.0705 1.27,0.70555 -0.17639,0.70556 0.0353,0.70556 27.34028,0.77612 l 27.55194,0.10583 -3.81,4.05694 c -4.1275,4.37445 -10.72444,12.20612 -14.14639,16.75695 -9.2075,12.20611 -15.38111,25.29417 -19.01472,40.21667 -1.12889,4.69194 -2.99861,14.11111 -2.99861,15.20472 0,0.28222 0.35278,0.49389 0.81139,0.49389 1.5875,0 2.43416,0.42333 2.25777,1.09361 -0.17638,0.635 0.28223,0.67028 11.07723,0.67028 6.17361,0 11.25361,-0.0353 11.25361,-0.10583 0,-0.0353 0.24694,-2.15195 0.52917,-4.65667 3.06916,-26.17611 13.51139,-45.96695 37.18278,-70.44973 l 5.32694,-5.50333 v -6.73806 c 0,-6.49111 -0.0353,-6.73805 -0.70555,-6.73805 -0.52917,0 -0.74084,-0.3175 -0.91723,-1.41111 l -0.24694,-1.41112 h -42.08639 -42.12167 z"
         id="path62"
         style="fill:#ffffff;stroke:none;stroke-width:0.0352778"
         inkscape:label="speed_tens_7" /><path
         d="m 271.05708,115.71973 c -14.99306,1.86972 -25.96445,9.525 -31.96167,22.33083 -3.70416,7.86695 -5.04472,15.66334 -5.08,29.17473 -0.0353,16.26306 2.08139,25.43528 7.76111,33.37278 1.905,2.68111 7.40834,7.97278 10.12473,9.80722 12.52361,8.29028 32.94944,9.38389 46.99,2.54 4.62139,-2.25777 7.69056,-4.55083 10.83028,-7.97278 6.45583,-7.09083 9.59555,-18.06222 7.90222,-27.69305 -1.05833,-6.0325 -2.99861,-10.12473 -6.84389,-14.49917 -4.69194,-5.3975 -9.63083,-8.78417 -15.5575,-10.68917 -5.04472,-1.65805 -7.44361,-1.97555 -14.14639,-1.94028 -5.11528,0 -6.70278,0.14112 -9.24278,0.77612 -3.56305,0.88194 -6.84389,2.29305 -10.08944,4.33916 l -2.29306,1.44639 0.24695,-3.56305 c 0.49388,-7.12612 2.43416,-12.20612 5.99722,-15.7339 3.45722,-3.42194 7.86694,-5.11528 13.47611,-5.11528 6.0325,0 9.70139,1.41112 11.88861,4.58612 0.74084,1.05833 1.65806,2.04611 2.01084,2.18722 0.35277,0.14111 0.84666,0.56444 1.05833,0.9525 0.35278,0.70555 0.635,0.74083 11.1125,0.74083 5.92667,0 10.75972,-0.10583 10.75972,-0.28222 -0.0353,-0.98778 -1.51694,-5.92667 -2.29305,-7.58472 -1.27,-2.61056 -5.60917,-7.58473 -8.60778,-9.80723 -4.33917,-3.21027 -10.08945,-5.60916 -16.61584,-6.87916 -3.45722,-0.67028 -13.68777,-0.9525 -17.42722,-0.49389 z m 14.18167,49.56528 c 7.40833,1.76389 11.00667,6.59695 11.00667,14.78139 0,5.50334 -1.72862,9.73667 -5.29167,13.0175 -3.77472,3.4925 -8.43139,5.04473 -14.11111,4.72723 -7.16139,-0.42334 -11.92389,-3.31612 -14.07584,-8.57251 -1.27,-3.03388 -1.48166,-9.03111 -0.42333,-12.41777 1.72861,-5.75028 6.38528,-10.08945 12.31194,-11.50056 2.68112,-0.67028 7.83167,-0.67028 10.58334,-0.0353 z"
         id="path54"
         style="fill:#ffffff;stroke:none;stroke-width:0.0352778"
         inkscape:label="speed_tens_6" /><path
         d="m 247.66487,116.89765 c -0.24694,0.74084 -10.40694,51.9289 -10.40694,52.38751 0,0.3175 0.56444,0.45861 1.62277,0.45861 1.44639,0 1.5875,0.0706 1.48167,0.77611 l -0.10583,0.81139 9.87778,0.10584 9.91305,0.0705 1.09361,-1.55222 c 1.37584,-1.94028 4.09223,-3.77472 7.16139,-4.83306 1.86973,-0.635 3.10445,-0.81139 6.70278,-0.81139 8.46667,-0.0705 13.29972,2.18723 15.94556,7.33778 3.31611,6.52639 2.46944,15.59278 -1.94028,21.13139 -3.4925,4.30389 -10.51278,6.56167 -18.415,5.82084 -6.42056,-0.56445 -10.19528,-2.78695 -11.14778,-6.59695 -0.35278,-1.34055 -0.67028,-1.94028 -1.23472,-2.15194 -0.49389,-0.21167 -0.84667,-0.74084 -0.98778,-1.55223 l -0.24694,-1.27 h -11.60639 -11.64167 v 1.02306 c 0,2.39889 1.12889,6.38528 2.71639,9.56028 1.44639,2.8575 2.18722,3.88055 5.22111,6.87916 5.08,5.11528 7.86694,6.87917 14.74611,9.31334 5.89139,2.08139 10.08945,2.68111 18.76778,2.64583 7.09083,0 8.14917,-0.0705 12.31195,-0.9525 13.89944,-2.96333 24.05944,-10.44222 28.43389,-20.91972 4.1275,-9.94834 2.92805,-22.33084 -2.99861,-30.65639 -2.22251,-3.13972 -7.05556,-7.86695 -10.01889,-9.8425 -6.985,-4.65667 -15.73389,-6.84389 -25.61167,-6.45584 -5.3975,0.21167 -8.50195,0.84667 -13.12334,2.71639 -1.51694,0.635 -2.96333,1.23472 -3.24555,1.34056 -0.28222,0.10583 -0.42334,0.0353 -0.28222,-0.17639 0.10583,-0.17639 0.84666,-3.66889 1.65805,-7.72584 0.81139,-4.05694 1.51695,-7.65528 1.62278,-7.97278 0.17639,-0.59972 1.76389,-0.635 24.94139,-0.70555 l 24.765,-0.10584 v -7.76111 -7.76111 l -0.77611,-0.10583 c -0.67028,-0.10584 -0.81139,-0.35278 -0.81139,-1.51695 v -1.37583 h -32.10278 c -25.4,0 -32.17333,0.10583 -32.27917,0.42333 z"
         id="path56"
         style="fill:#ffffff;stroke:none;stroke-width:0.0352778"
         inkscape:label="speed_tens_5" /><path
         d="m 276.43416,118.63973 c -0.35278,0.38806 -10.26584,13.51139 -22.04861,29.17473 l -21.37833,28.46917 v 7.97278 7.9375 h 1.41111 c 1.27,0 1.41111,0.0705 1.41111,0.88194 v 0.88195 h 22.57777 22.57778 v 9.70139 9.70139 h 1.62278 c 1.44639,0 1.5875,0.0705 1.48167,0.77611 l -0.10584,0.81139 h 11.28889 11.28889 l 0.0706,-10.40695 0.0705,-10.40694 6.20889,-0.10584 6.17361,-0.0705 v -7.23195 -7.23194 h -0.81139 c -0.70555,0 -0.84666,-0.17639 -0.88194,-1.27 -0.0353,-0.70556 -0.10583,-1.34056 -0.14111,-1.41111 -0.0706,-0.0353 -2.46945,-0.14111 -5.32695,-0.21167 l -5.18583,-0.10583 -0.10583,-27.86945 -0.0706,-27.86945 -0.77611,0.10583 c -0.67028,0.10584 -0.77611,-0.0705 -0.88194,-1.34055 l -0.10584,-1.44639 -13.86417,-0.0706 c -13.47611,-0.0706 -13.89944,-0.0353 -14.49916,0.635 z m 4.55083,39.68751 v 18.37972 l -13.97,-0.0353 c -8.50195,-0.0353 -13.89944,-0.17639 -13.82888,-0.38806 0.10583,-0.3175 27.55194,-36.23028 27.72833,-36.26556 0.0353,-0.0353 0.0706,8.21972 0.0706,18.30917 z"
         id="path55"
         style="fill:#ffffff;stroke:none;stroke-width:0.0352778"
         inkscape:label="speed_tens_4" /><path
         d="m 267.14922,115.78855 c -11.32417,1.30527 -20.81389,5.64444 -25.89389,11.81805 -1.97556,2.39889 -3.81,6.06778 -4.62139,9.13695 -0.56445,2.25778 -1.34056,9.94833 -1.02306,10.4775 0.10583,0.14111 0.81139,0.28222 1.5875,0.28222 1.27,0 1.41111,0.0705 1.30528,0.77611 l -0.10583,0.81139 10.44222,0.10583 10.44222,0.0706 0.21167,-2.89277 c 0.52916,-7.33778 3.03389,-10.83028 9.27805,-12.98223 5.67973,-1.97555 14.71084,-0.91722 17.53306,2.04611 2.15195,2.25778 3.13972,6.6675 2.36361,10.47751 -1.51694,7.37305 -7.16139,10.90083 -18.16805,11.43 l -4.58612,0.21166 -0.10583,6.24417 -0.0706,6.27944 h 0.77612 c 1.5875,0 2.46944,0.42333 2.29305,1.05833 -0.14111,0.52917 0.35278,0.635 4.83306,0.81139 10.30111,0.49389 15.69861,2.89278 18.02694,8.07861 1.34056,2.96334 1.41111,7.16139 0.21167,10.26584 -0.98778,2.54 -4.02167,5.75028 -6.70278,7.09083 -7.62,3.88056 -20.07306,2.64584 -23.70667,-2.36361 -0.98777,-1.37583 -2.43416,-5.29167 -2.43416,-6.63222 0,-0.42334 -0.24695,-0.67028 -0.67028,-0.67028 -0.74083,0 -1.09361,-0.67028 -1.09361,-1.97556 v -0.84666 h -11.64167 c -9.8425,0 -11.64167,0.0705 -11.64167,0.49389 0,3.24555 1.48167,9.17222 3.06917,12.34722 2.04611,4.1275 7.02028,9.66611 11.21833,12.55889 4.16278,2.8575 10.40695,5.22111 16.96862,6.38528 5.04472,0.88194 15.38111,1.09361 20.42583,0.35278 17.35667,-2.46945 28.50445,-10.61862 31.78528,-23.14223 0.77611,-3.03389 0.88194,-9.70139 0.17639,-12.52361 -0.81139,-3.38667 -2.64583,-6.70278 -5.29167,-9.56028 -2.99861,-3.24555 -5.25639,-5.04472 -9.34861,-7.3025 l -3.13972,-1.76388 1.19944,-0.59973 c 2.39889,-1.23472 6.27945,-4.16277 8.14917,-6.10305 3.66889,-3.88056 5.00944,-7.26722 5.00944,-12.94695 0,-6.38528 -1.69333,-10.61861 -6.13833,-15.45166 -5.46806,-5.85612 -11.35944,-9.06639 -20.0025,-10.86556 -6.31472,-1.30528 -14.56972,-1.69333 -20.91972,-0.98778 z"
         id="path66"
         style="fill:#ffffff;stroke:none;stroke-width:0.0352778"
         inkscape:label="speed_tens_3" /><path
         d="m 268.08502,117.04637 c -0.49389,0.0706 -2.08139,0.3175 -3.52778,0.52917 -17.88583,2.57527 -28.575,13.79361 -28.71611,30.12722 l -0.0353,4.23333 1.30528,0.10584 c 0.98778,0.0705 1.34055,0.28222 1.41111,0.81139 0.0705,0.38805 0.21167,0.70555 0.38805,0.67027 0.14112,0 5.00945,0 10.83028,0 h 10.58334 v -3.10444 c 0,-3.35139 0.59972,-6.27945 1.79916,-8.60778 1.09362,-2.15194 4.02167,-5.08 6.10306,-6.10306 5.18583,-2.54 12.94695,-2.54 18.30917,0 2.32833,1.12889 3.4925,2.36362 4.79778,5.11528 0.84666,1.79917 0.91722,2.29306 0.91722,6.87917 0,4.83306 -0.0353,4.97417 -1.12889,7.33778 -2.68111,5.67972 -8.60778,10.15999 -27.97528,21.20194 -4.37444,2.50472 -9.31333,5.46806 -10.97139,6.63222 -10.97139,7.47889 -15.80445,14.78139 -17.56833,26.63473 -0.21167,1.37583 -0.38806,3.03389 -0.38806,3.59833 0,1.05833 0.0706,1.09361 1.55222,1.09361 1.44639,0 1.51695,0.0353 1.34056,0.88195 l -0.14111,0.88194 h 40.25194 40.25195 v -7.9375 c 0,-7.69056 -0.0353,-7.9375 -0.70555,-7.9375 -0.52917,0 -0.74084,-0.3175 -0.91723,-1.41111 l -0.24694,-1.41111 h -23.98889 -24.02417 l 1.905,-1.94028 c 2.8575,-2.89278 6.20889,-5.18583 18.55611,-12.55889 13.93473,-8.36083 17.32139,-10.72445 22.01334,-15.45167 5.25639,-5.29166 7.19666,-9.20749 7.69055,-15.5575 0.52917,-6.38527 -0.74083,-12.59416 -3.4925,-17.10972 -1.44639,-2.39889 -5.92666,-7.3025 -8.46666,-9.24278 -4.30389,-3.31611 -10.37167,-5.92666 -17.25084,-7.40833 -3.45722,-0.74083 -5.18583,-0.88195 -11.81805,-0.98778 -4.26862,-0.0705 -8.14917,-0.0705 -8.64306,0.0353 z"
         id="path52"
         style="fill:#ffffff;stroke:none;stroke-width:0.0352778"
         inkscape:label="speed_tens_2" /><path
         d="m 284.35401,120.74365 c -4.05694,8.46666 -14.35805,13.19389 -30.62111,14.07583 l -4.7625,0.24695 v 6.17361 6.17361 l 1.51694,0.10583 c 1.27,0.10584 1.51695,0.21167 1.41111,0.81139 -0.10583,0.67028 0.14112,0.70556 12.87639,0.67028 h 12.94695 v 32.10277 32.10278 h 1.41111 c 1.27,0 1.41111,0.0706 1.41111,0.88195 v 0.88194 h 11.28889 11.28889 v -47.09583 c 0,-46.14334 0,-47.09584 -0.67028,-47.09584 -0.52916,0 -0.74083,-0.35277 -0.91722,-1.41111 l -0.24694,-1.41111 -7.79639,0.0353 h -7.83167 z"
         id="path64"
         style="fill:#ffffff;stroke:#ffffff;stroke-width:0.0352778;stroke-opacity:1"
         inkscape:label="speed_tens_1" /><path
         d="m 266.63971,115.23323 c -15.73389,2.43416 -27.02278,11.64167 -32.27917,26.3525 -2.08139,5.85611 -2.99861,10.61861 -3.52778,18.48556 -0.81139,12.7 1.16417,25.15305 5.46805,34.14889 2.68112,5.60916 8.21973,12.55889 12.70001,15.98083 2.68111,2.04611 7.47889,4.48028 11.1125,5.67972 9.8425,3.175 23.67139,3.10445 33.37278,-0.14111 9.66611,-3.24555 17.32139,-9.87778 21.97805,-19.05 3.77473,-7.47889 5.57389,-15.5575 5.92667,-26.84639 0.59972,-19.26167 -4.51556,-34.32528 -15.09889,-44.45 -5.99722,-5.715 -13.61722,-9.10167 -23.35389,-10.37167 -3.77472,-0.49389 -12.45306,-0.38805 -16.29833,0.21167 z m 14.95777,19.15583 c 2.89278,0.88195 5.60917,2.99861 6.84389,5.25639 2.39889,4.445 3.77473,13.72306 3.77473,25.82334 0,23.74194 -4.26862,32.91417 -15.69862,33.76083 -5.89139,0.45861 -11.1125,-2.32833 -13.37027,-7.05555 -0.98778,-2.11667 -2.08139,-6.985 -2.71639,-12.065 -0.59973,-4.62139 -0.59973,-21.13139 0,-25.75278 1.51694,-12.20612 4.69194,-17.85056 11.21833,-19.93195 2.78695,-0.91722 7.16139,-0.91722 9.94833,-0.0353 z"
         id="path63"
         style="fill:#ffffff;stroke:none;stroke-width:0.0352778"
         inkscape:label="speed_tens_0" /></g><g
       id="g75"
       inkscape:label="speed_ones"
       transform="matrix(1.6666667,0,0,1.7727472,-1.8150689,15.350329)"
       style="display:inline"><path
         d="m 367.65528,115.82032 c -10.65389,1.34056 -18.45028,4.90362 -24.69444,11.28889 -5.85611,5.99723 -8.64306,13.0175 -8.64306,21.76639 0,4.86834 0.42334,7.65528 1.72861,11.46528 1.97556,5.715 5.32695,10.37167 10.86556,15.09889 5.92667,5.04473 13.54667,7.79639 22.71889,8.18445 9.63083,0.42333 16.86278,-1.69334 21.87222,-6.38528 l 1.48167,-1.41111 -0.21167,2.99861 c -0.49389,6.49111 -2.96333,12.77056 -6.24416,16.05139 -3.45723,3.45722 -7.3025,4.86833 -13.22917,4.83306 -6.24417,0 -10.58334,-1.69334 -12.10028,-4.69195 -0.42333,-0.88194 -0.98778,-1.5875 -1.23472,-1.5875 -0.21167,0 -0.67028,-0.67028 -0.9525,-1.51694 l -0.49389,-1.48167 -11.32417,0.0706 -11.28889,0.10584 0.14111,1.5875 c 0.17639,2.57528 1.41111,5.99722 3.03389,8.67833 1.65806,2.61056 6.87917,7.97278 9.80722,9.98361 4.19806,2.89278 10.93612,5.25639 17.67417,6.24417 5.22111,0.77611 14.81667,0.49389 19.43806,-0.52917 16.22778,-3.63361 25.32945,-12.87639 29.80972,-30.23305 4.97417,-19.22639 2.89278,-41.45139 -4.90361,-52.70501 -2.18722,-3.175 -8.50194,-9.38389 -11.60639,-11.43 -8.43139,-5.57389 -19.89667,-7.86694 -31.64417,-6.38528 z m 13.72306,17.32139 c 5.99722,1.44639 9.17222,4.72723 10.65389,10.97139 0.67028,2.89278 0.49389,8.14917 -0.35278,10.90084 -0.84666,2.75166 -3.21028,5.99722 -5.57389,7.76111 -3.70416,2.71639 -8.00805,3.88056 -13.15861,3.56306 -6.87917,-0.45862 -11.07722,-2.96334 -13.0175,-7.86695 -2.50472,-6.20889 -1.86972,-13.97 1.51694,-19.08528 3.95112,-5.92667 11.50056,-8.29028 19.93195,-6.24417 z"
         id="path70"
         style="fill:#ffffff;stroke:none;stroke-width:0.0352778"
         inkscape:label="speed_ones_9" /><path
         d="m 366.43021,115.94727 c -12.98222,2.04611 -23.07167,7.97277 -27.09333,16.01611 -3.06917,6.06778 -3.10445,13.54667 -0.10584,18.7325 1.72861,2.99861 6.87917,7.76111 10.40695,9.63083 1.86972,0.98778 1.905,0.91723 -1.16417,2.39889 -6.49111,3.13972 -11.78278,8.18445 -13.82889,13.19389 -1.37583,3.31611 -1.51694,4.26861 -1.51694,9.34861 0.0353,4.58611 0.10583,5.3975 0.98777,7.9375 0.49389,1.55223 1.51695,3.84528 2.25778,5.11528 1.5875,2.68111 6.73806,8.18445 9.98361,10.61861 8.11389,6.10306 21.59001,9.27806 35.59528,8.36084 12.80584,-0.81139 22.89528,-4.7625 29.88028,-11.71223 2.78695,-2.78694 4.55084,-5.36222 5.92667,-8.60777 3.03389,-7.16139 2.43417,-16.79223 -1.37583,-22.47195 -2.64584,-3.98639 -7.62,-8.32556 -12.84111,-11.21833 l -2.25778,-1.23473 2.57528,-1.27 c 6.06777,-2.99861 9.41916,-6.84389 11.1125,-12.73527 1.37583,-4.65667 0.35277,-11.64167 -2.2225,-15.69862 -1.48167,-2.32833 -6.20889,-7.23194 -8.74889,-9.03111 -5.00945,-3.56305 -12.66473,-6.38528 -20.07306,-7.37305 -4.7625,-0.635 -13.40556,-0.635 -17.49778,0 z m 17.39195,17.07444 c 6.73805,1.72861 9.56028,4.65667 9.56028,9.91306 0.0353,3.06916 -1.02306,5.43278 -3.42195,7.72583 -3.56306,3.35139 -7.83167,4.7625 -14.32278,4.7625 -4.58611,0 -7.33778,-0.59972 -10.83028,-2.29305 -2.75166,-1.34056 -4.1275,-2.96334 -4.90361,-5.85612 -0.52916,-1.905 -0.56444,-2.61055 -0.21166,-4.445 0.67027,-3.63361 3.52777,-6.94972 7.37305,-8.60777 4.48028,-1.905 11.85334,-2.43417 16.75695,-1.19945 z m 0.98777,38.13528 c 3.42195,1.16417 4.69195,1.905 6.27945,3.73945 2.25778,2.54 3.03389,4.90361 3.03389,9.31333 0.0353,4.93889 -0.77611,7.05556 -3.81,10.08945 -3.70417,3.66888 -7.97278,5.22111 -14.67556,5.22111 -4.86833,0.0353 -7.65528,-0.52917 -11.04194,-2.2225 -3.06917,-1.55223 -4.51556,-3.31611 -5.57389,-6.80862 -1.62278,-5.29166 -0.28222,-11.1125 3.42194,-15.09889 1.94028,-2.08138 5.53861,-3.98638 8.96056,-4.7625 3.35139,-0.77611 10.37167,-0.49388 13.40555,0.52917 z"
         id="path71"
         style="fill:#ffffff;stroke:none;stroke-width:0.0352778"
         inkscape:label="speed_ones_8" /><path
         d="M 333.37072,126.42333 V 134.89 h 1.44639 c 1.27,0 1.44639,0.0705 1.27,0.70555 -0.17639,0.70556 0.0353,0.70556 27.34028,0.77612 l 27.55194,0.10583 -3.81,4.05694 c -4.1275,4.37445 -10.72444,12.20612 -14.14639,16.75695 -9.2075,12.20611 -15.38111,25.29417 -19.01472,40.21667 -1.12889,4.69194 -2.99861,14.11111 -2.99861,15.20472 0,0.28222 0.35278,0.49389 0.81139,0.49389 1.5875,0 2.43416,0.42333 2.25777,1.09361 -0.17638,0.635 0.28223,0.67028 11.07723,0.67028 6.17361,0 11.25361,-0.0353 11.25361,-0.10583 0,-0.0353 0.24694,-2.15195 0.52917,-4.65667 3.06916,-26.17611 13.51139,-45.96695 37.18278,-70.44973 l 5.32694,-5.50333 v -6.73806 c 0,-6.49111 -0.0353,-6.73805 -0.70555,-6.73805 -0.52917,0 -0.74084,-0.3175 -0.91723,-1.41111 l -0.24694,-1.41112 h -42.08639 -42.12167 z"
         id="path72"
         style="fill:#ffffff;stroke:none;stroke-width:0.0352778"
         inkscape:label="speed_ones_7" /><path
         d="m 371.42059,115.71974 c -14.99306,1.86972 -25.96445,9.525 -31.96167,22.33083 -3.70416,7.86695 -5.04472,15.66334 -5.08,29.17473 -0.0353,16.26306 2.08139,25.43528 7.76111,33.37278 1.905,2.68111 7.40834,7.97278 10.12473,9.80722 12.52361,8.29028 32.94944,9.38389 46.99,2.54 4.62139,-2.25777 7.69056,-4.55083 10.83028,-7.97278 6.45583,-7.09083 9.59555,-18.06222 7.90222,-27.69305 -1.05833,-6.0325 -2.99861,-10.12473 -6.84389,-14.49917 -4.69194,-5.3975 -9.63083,-8.78417 -15.5575,-10.68917 -5.04472,-1.65805 -7.44361,-1.97555 -14.14639,-1.94028 -5.11528,0 -6.70278,0.14112 -9.24278,0.77612 -3.56305,0.88194 -6.84389,2.29305 -10.08944,4.33916 l -2.29306,1.44639 0.24695,-3.56305 c 0.49388,-7.12612 2.43416,-12.20612 5.99722,-15.7339 3.45722,-3.42194 7.86694,-5.11528 13.47611,-5.11528 6.0325,0 9.70139,1.41112 11.88861,4.58612 0.74084,1.05833 1.65806,2.04611 2.01084,2.18722 0.35277,0.14111 0.84666,0.56444 1.05833,0.9525 0.35278,0.70555 0.635,0.74083 11.1125,0.74083 5.92667,0 10.75972,-0.10583 10.75972,-0.28222 -0.0353,-0.98778 -1.51694,-5.92667 -2.29305,-7.58472 -1.27,-2.61056 -5.60917,-7.58473 -8.60778,-9.80723 -4.33917,-3.21027 -10.08945,-5.60916 -16.61584,-6.87916 -3.45722,-0.67028 -13.68777,-0.9525 -17.42722,-0.49389 z m 14.18167,49.56528 c 7.40833,1.76389 11.00667,6.59695 11.00667,14.78139 0,5.50334 -1.72862,9.73667 -5.29167,13.0175 -3.77472,3.4925 -8.43139,5.04473 -14.11111,4.72723 -7.16139,-0.42334 -11.92389,-3.31612 -14.07584,-8.57251 -1.27,-3.03388 -1.48166,-9.03111 -0.42333,-12.41777 1.72861,-5.75028 6.38528,-10.08945 12.31194,-11.50056 2.68112,-0.67028 7.83167,-0.67028 10.58334,-0.0353 z"
         id="path67"
         style="fill:#ffffff;stroke:none;stroke-width:0.0352778"
         inkscape:label="speed_ones_6" /><path
         d="m 348.02838,116.89765 c -0.24694,0.74084 -10.40694,51.9289 -10.40694,52.38751 0,0.3175 0.56444,0.45861 1.62277,0.45861 1.44639,0 1.5875,0.0706 1.48167,0.77611 l -0.10583,0.81139 9.87778,0.10584 9.91305,0.0705 1.09361,-1.55222 c 1.37584,-1.94028 4.09223,-3.77472 7.16139,-4.83306 1.86973,-0.635 3.10445,-0.81139 6.70278,-0.81139 8.46667,-0.0705 13.29972,2.18723 15.94556,7.33778 3.31611,6.52639 2.46944,15.59278 -1.94028,21.13139 -3.4925,4.30389 -10.51278,6.56167 -18.415,5.82084 -6.42056,-0.56445 -10.19528,-2.78695 -11.14778,-6.59695 -0.35278,-1.34055 -0.67028,-1.94028 -1.23472,-2.15194 -0.49389,-0.21167 -0.84667,-0.74084 -0.98778,-1.55223 l -0.24694,-1.27 h -11.60639 -11.64167 v 1.02306 c 0,2.39889 1.12889,6.38528 2.71639,9.56028 1.44639,2.8575 2.18722,3.88055 5.22111,6.87916 5.08,5.11528 7.86694,6.87917 14.74611,9.31334 5.89139,2.08139 10.08945,2.68111 18.76778,2.64583 7.09083,0 8.14917,-0.0705 12.31195,-0.9525 13.89944,-2.96333 24.05944,-10.44222 28.43389,-20.91972 4.1275,-9.94834 2.92805,-22.33084 -2.99861,-30.65639 -2.22251,-3.13972 -7.05556,-7.86695 -10.01889,-9.8425 -6.985,-4.65667 -15.73389,-6.84389 -25.61167,-6.45584 -5.3975,0.21167 -8.50195,0.84667 -13.12334,2.71639 -1.51694,0.635 -2.96333,1.23472 -3.24555,1.34056 -0.28222,0.10583 -0.42334,0.0353 -0.28222,-0.17639 0.10583,-0.17639 0.84666,-3.66889 1.65805,-7.72584 0.81139,-4.05694 1.51695,-7.65528 1.62278,-7.97278 0.17639,-0.59972 1.76389,-0.635 24.94139,-0.70555 l 24.765,-0.10584 v -7.76111 -7.76111 l -0.77611,-0.10583 c -0.67028,-0.10584 -0.81139,-0.35278 -0.81139,-1.51695 v -1.37583 h -32.10278 c -25.4,0 -32.17333,0.10583 -32.27917,0.42333 z"
         id="path69"
         style="fill:#ffffff;stroke:none;stroke-width:0.0352778"
         inkscape:label="speed_ones_5" /><path
         d="m 376.79767,118.63973 c -0.35278,0.38806 -10.26584,13.51139 -22.04862,29.17473 l -21.37833,28.46917 v 7.97278 7.9375 h 1.41111 c 1.27,0 1.41111,0.0705 1.41111,0.88194 v 0.88195 h 22.57778 22.57778 v 9.70139 9.70139 h 1.62278 c 1.44639,0 1.5875,0.0705 1.48167,0.77611 l -0.10584,0.81139 h 11.28889 11.28889 l 0.0706,-10.40695 0.0705,-10.40694 6.20889,-0.10584 6.17361,-0.0705 v -7.23195 -7.23194 h -0.81139 c -0.70555,0 -0.84666,-0.17639 -0.88194,-1.27 -0.0353,-0.70556 -0.10583,-1.34056 -0.14111,-1.41111 -0.0706,-0.0353 -2.46945,-0.14111 -5.32695,-0.21167 l -5.18583,-0.10583 -0.10583,-27.86945 -0.0706,-27.86945 -0.77611,0.10583 c -0.67028,0.10584 -0.77611,-0.0705 -0.88194,-1.34055 l -0.10584,-1.44639 -13.86417,-0.0706 c -13.47611,-0.0706 -13.89944,-0.0353 -14.49916,0.635 z m 4.55083,39.68751 v 18.37972 l -13.97,-0.0353 c -8.50195,-0.0353 -13.89945,-0.17639 -13.82889,-0.38806 0.10583,-0.3175 27.55195,-36.23028 27.72834,-36.26556 0.0353,-0.0353 0.0706,8.21972 0.0706,18.30917 z"
         id="path68"
         style="fill:#ffffff;stroke:none;stroke-width:0.0352778"
         inkscape:label="speed_ones_4" /><path
         d="m 367.51273,115.78855 c -11.32417,1.30527 -20.81389,5.64444 -25.89389,11.81805 -1.97556,2.39889 -3.81,6.06778 -4.62139,9.13695 -0.56445,2.25778 -1.34056,9.94833 -1.02306,10.4775 0.10583,0.14111 0.81139,0.28222 1.5875,0.28222 1.27,0 1.41111,0.0705 1.30528,0.77611 l -0.10583,0.81139 10.44222,0.10583 10.44222,0.0706 0.21167,-2.89277 c 0.52916,-7.33778 3.03389,-10.83028 9.27805,-12.98223 5.67973,-1.97555 14.71084,-0.91722 17.53306,2.04611 2.15195,2.25778 3.13972,6.6675 2.36361,10.47751 -1.51694,7.37305 -7.16139,10.90083 -18.16805,11.43 l -4.58612,0.21166 -0.10583,6.24417 -0.0706,6.27944 h 0.77612 c 1.5875,0 2.46944,0.42333 2.29305,1.05833 -0.14111,0.52917 0.35278,0.635 4.83306,0.81139 10.30111,0.49389 15.69861,2.89278 18.02694,8.07861 1.34056,2.96334 1.41111,7.16139 0.21167,10.26584 -0.98778,2.54 -4.02167,5.75028 -6.70278,7.09083 -7.62,3.88056 -20.07306,2.64584 -23.70667,-2.36361 -0.98777,-1.37583 -2.43416,-5.29167 -2.43416,-6.63222 0,-0.42334 -0.24695,-0.67028 -0.67028,-0.67028 -0.74083,0 -1.09361,-0.67028 -1.09361,-1.97556 v -0.84666 h -11.64167 c -9.8425,0 -11.64167,0.0705 -11.64167,0.49389 0,3.24555 1.48167,9.17222 3.06917,12.34722 2.04611,4.1275 7.02028,9.66611 11.21833,12.55889 4.16278,2.8575 10.40695,5.22111 16.96862,6.38528 5.04472,0.88194 15.38111,1.09361 20.42583,0.35278 17.35667,-2.46945 28.50445,-10.61862 31.78528,-23.14223 0.77611,-3.03389 0.88194,-9.70139 0.17639,-12.52361 -0.81139,-3.38667 -2.64583,-6.70278 -5.29167,-9.56028 -2.99861,-3.24555 -5.25639,-5.04472 -9.34861,-7.3025 l -3.13972,-1.76388 1.19944,-0.59973 c 2.39889,-1.23472 6.27945,-4.16277 8.14917,-6.10305 3.66889,-3.88056 5.00944,-7.26722 5.00944,-12.94695 0,-6.38528 -1.69333,-10.61861 -6.13833,-15.45166 -5.46806,-5.85612 -11.35944,-9.06639 -20.0025,-10.86556 -6.31472,-1.30528 -14.56972,-1.69333 -20.91972,-0.98778 z"
         id="path53"
         style="fill:#ffffff;stroke:none;stroke-width:0.0352778"
         inkscape:label="speed_ones_3" /><path
         d="m 368.44853,117.04637 c -0.49389,0.0706 -2.08139,0.3175 -3.52778,0.52917 -17.88583,2.57527 -28.575,13.79361 -28.71611,30.12722 l -0.0353,4.23333 1.30528,0.10584 c 0.98778,0.0705 1.34055,0.28222 1.41111,0.81139 0.0705,0.38805 0.21167,0.70555 0.38805,0.67027 0.14112,0 5.00945,0 10.83028,0 h 10.58334 v -3.10444 c 0,-3.35139 0.59972,-6.27945 1.79916,-8.60778 1.09362,-2.15194 4.02167,-5.08 6.10306,-6.10306 5.18583,-2.54 12.94695,-2.54 18.30917,0 2.32833,1.12889 3.4925,2.36362 4.79778,5.11528 0.84666,1.79917 0.91722,2.29306 0.91722,6.87917 0,4.83306 -0.0353,4.97417 -1.12889,7.33778 -2.68111,5.67972 -8.60778,10.15999 -27.97528,21.20194 -4.37444,2.50472 -9.31333,5.46806 -10.97139,6.63222 -10.97139,7.47889 -15.80445,14.78139 -17.56833,26.63473 -0.21167,1.37583 -0.38806,3.03389 -0.38806,3.59833 0,1.05833 0.0706,1.09361 1.55222,1.09361 1.44639,0 1.51695,0.0353 1.34056,0.88195 l -0.14111,0.88194 h 40.25194 40.25195 v -7.9375 c 0,-7.69056 -0.0353,-7.9375 -0.70555,-7.9375 -0.52917,0 -0.74084,-0.3175 -0.91723,-1.41111 l -0.24694,-1.41111 h -23.98889 -24.02417 l 1.905,-1.94028 c 2.8575,-2.89278 6.20889,-5.18583 18.55611,-12.55889 13.93473,-8.36083 17.32139,-10.72445 22.01334,-15.45167 5.25639,-5.29166 7.19666,-9.20749 7.69055,-15.5575 0.52917,-6.38527 -0.74083,-12.59416 -3.4925,-17.10972 -1.44639,-2.39889 -5.92666,-7.3025 -8.46666,-9.24278 -4.30389,-3.31611 -10.37167,-5.92666 -17.25084,-7.40833 -3.45722,-0.74083 -5.18583,-0.88195 -11.81805,-0.98778 -4.26862,-0.0705 -8.14917,-0.0705 -8.64306,0.0353 z"
         id="path65"
         style="fill:#ffffff;stroke:none;stroke-width:0.0352778"
         inkscape:label="speed_ones_2" /><path
         d="m 384.71752,120.74365 c -4.05694,8.46666 -14.35805,13.19389 -30.62111,14.07583 l -4.7625,0.24695 v 6.17361 6.17361 l 1.51694,0.10583 c 1.27,0.10584 1.51695,0.21167 1.41111,0.81139 -0.10583,0.67028 0.14112,0.70556 12.87639,0.67028 h 12.94695 v 32.10277 32.10278 h 1.41111 c 1.27,0 1.41111,0.0706 1.41111,0.88195 v 0.88194 h 11.28889 11.28889 v -47.09583 c 0,-46.14334 0,-47.09584 -0.67028,-47.09584 -0.52916,0 -0.74083,-0.35277 -0.91722,-1.41111 l -0.24694,-1.41111 -7.79639,0.0353 h -7.83167 z"
         id="path74"
         style="fill:#ffffff;stroke:#ffffff;stroke-width:0.0352778;stroke-opacity:1"
         inkscape:label="speed_ones_1" /><path
         d="m 367.00321,115.23323 c -15.73389,2.43416 -27.02278,11.64167 -32.27917,26.3525 -2.08139,5.85611 -2.99861,10.61861 -3.52778,18.48556 -0.81139,12.7 1.16417,25.15305 5.46805,34.14889 2.68112,5.60916 8.21973,12.55889 12.70001,15.98083 2.68111,2.04611 7.47889,4.48028 11.1125,5.67972 9.8425,3.175 23.67139,3.10445 33.37278,-0.14111 9.66611,-3.24555 17.32139,-9.87778 21.97805,-19.05 3.77473,-7.47889 5.57389,-15.5575 5.92667,-26.84639 0.59972,-19.26167 -4.51556,-34.32528 -15.09889,-44.45 -5.99722,-5.715 -13.61722,-9.10167 -23.35389,-10.37167 -3.77472,-0.49389 -12.45306,-0.38805 -16.29833,0.21167 z m 14.95777,19.15583 c 2.89278,0.88195 5.60917,2.99861 6.84389,5.25639 2.39889,4.445 3.77473,13.72306 3.77473,25.82334 0,23.74194 -4.26862,32.91417 -15.69862,33.76083 -5.89139,0.45861 -11.1125,-2.32833 -13.37027,-7.05555 -0.98778,-2.11667 -2.08139,-6.985 -2.71639,-12.065 -0.59973,-4.62139 -0.59973,-21.13139 0,-25.75278 1.51694,-12.20612 4.69194,-17.85056 11.21833,-19.93195 2.78695,-0.91722 7.16139,-0.91722 9.94833,-0.0353 z"
         id="path73"
         style="fill:#ffffff;stroke:none;stroke-width:0.0352778"
         inkscape:label="speed_ones_0" /></g><g
       id="g91"
       inkscape:label="oil"
       transform="matrix(1.6666667,0,0,1.7727472,4.6666666e-7,18.892998)"
       style="display:inline"><path
         style="fill:#ffffff;stroke:#ffffff;stroke-width:0.243852;stroke-opacity:1"
         d="m 473.89243,3.4659024 -4.20956,15.7117016 h 4.42299 l 4.20956,-15.7117016 z"
         id="oil10" /><path
         style="fill:#ffffff;stroke:#ffffff;stroke-width:0.243852;stroke-opacity:1"
         d="m 466.37713,3.4659024 -4.20956,15.7117016 h 4.42247 L 470.7996,3.4659024 Z"
         id="oil09" /><path
         style="fill:#ffffff;stroke:#ffffff;stroke-width:0.243852;stroke-opacity:1"
         d="m 458.86131,3.4659024 -4.20956,15.7117016 h 4.42298 L 463.2843,3.4659024 Z"
         id="oil08" /><path
         style="fill:#ffffff;stroke:#ffffff;stroke-width:0.243852;stroke-opacity:1"
         d="m 451.34601,3.4659024 -4.20957,15.7117016 h 4.42247 l 4.21008,-15.7117016 z"
         id="oil07" /><path
         style="fill:#ffffff;stroke:#ffffff;stroke-width:0.243852;stroke-opacity:1"
         d="m 443.8307,3.4659024 -4.20956,15.7117016 h 4.42247 l 4.20956,-15.7117016 z"
         id="oil06" /><path
         style="fill:#ffffff;stroke:#ffffff;stroke-width:0.243852;stroke-opacity:1"
         d="m 436.31488,3.4659024 -4.20956,15.7117016 h 4.42299 l 4.20956,-15.7117016 z"
         id="oil05" /><path
         style="fill:#ffffff;stroke:#ffffff;stroke-width:0.243852;stroke-opacity:1"
         d="m 428.79958,3.4659024 -4.20956,15.7117016 h 4.42247 l 4.21008,-15.7117016 z"
         id="oil04" /><path
         style="fill:#ffffff;stroke:#ffffff;stroke-width:0.243852;stroke-opacity:1"
         d="m 421.28428,3.4659024 -4.20957,15.7117016 h 4.42247 l 4.20957,-15.7117016 z"
         id="oil03" /><path
         style="fill:#ffffff;stroke:#ffffff;stroke-width:0.243852;stroke-opacity:1"
         d="m 413.76846,3.4659024 -4.20957,15.7117016 h 4.42299 l 4.20956,-15.7117016 z"
         id="oil02" /><path
         style="fill:#ffffff;stroke:#ffffff;stroke-width:0.243852;stroke-opacity:1"
         d="m 406.25315,3.4659024 -4.20956,15.7117016 h 4.42247 l 4.20956,-15.7117016 z"
         id="oil01" /></g><polygon
       points="1,10 1,22 17,22 17,26.5 31,16 17,5.5 17,10 "
       style="display:inline;fill:#55ff00;fill-opacity:1;stroke:none;stroke-width:2px;stroke-linecap:round;stroke-linejoin:round"
       id="direction_left"
       transform="matrix(-2.1428572,0,0,2.3986574,75.645163,57.812035)"
       inkscape:label="direction_left" /><polygon
       points="1,10 1,22 17,22 17,26.5 31,16 17,5.5 17,10 "
       style="display:inline;fill:#55ff00;fill-opacity:1;stroke:none;stroke-width:2px;stroke-linecap:round;stroke-linejoin:round"
       id="direction_right"
       transform="matrix(2.1428523,0.00458373,0.00513091,-2.3986519,725.96216,136.49626)"
       inkscape:label="direction_right" /></g><style
     type="text/css"
     id="style1">
	.st0{fill:#000000;}
</style></svg>
